<?xml version="1.0" encoding="utf-8" standalone="no"?>
<!DOCTYPE svg PUBLIC "-//W3C//DTD SVG 1.1//EN"
  "http://www.w3.org/Graphics/SVG/1.1/DTD/svg11.dtd">
<svg xmlns:xlink="http://www.w3.org/1999/xlink" width="792pt" height="504pt" viewBox="0 0 792 504" xmlns="http://www.w3.org/2000/svg" version="1.1">
 <metadata>
  <rdf:RDF xmlns:dc="http://purl.org/dc/elements/1.1/" xmlns:cc="http://creativecommons.org/ns#" xmlns:rdf="http://www.w3.org/1999/02/22-rdf-syntax-ns#">
   <cc:Work>
    <dc:type rdf:resource="http://purl.org/dc/dcmitype/StillImage"/>
    <dc:date>2022-01-12T12:49:42.357918</dc:date>
    <dc:format>image/svg+xml</dc:format>
    <dc:creator>
     <cc:Agent>
      <dc:title>Matplotlib v3.5.1, https://matplotlib.org/</dc:title>
     </cc:Agent>
    </dc:creator>
   </cc:Work>
  </rdf:RDF>
 </metadata>
 <defs>
  <style type="text/css">*{stroke-linejoin: round; stroke-linecap: butt}</style>
 </defs>
 <g id="figure_1">
  <g id="patch_1">
   <path d="M 0 504 
L 792 504 
L 792 0 
L 0 0 
z
" style="fill: #ffffff"/>
  </g>
  <g id="axes_1">
   <g id="patch_2">
    <path d="M 60.64375 438.48 
L 781.2 438.48 
L 781.2 70.56 
L 60.64375 70.56 
z
" style="fill: #ffffff"/>
   </g>
   <g id="matplotlib.axis_1">
    <g id="xtick_1">
     <g id="line2d_1"/>
     <g id="text_1">
      <!-- US -->
      <g transform="translate(102.434182 451.098125)scale(0.12 -0.12)">
       <defs>
        <path id="DejaVuSans-55" d="M 556 4666 
L 1191 4666 
L 1191 1831 
Q 1191 1081 1462 751 
Q 1734 422 2344 422 
Q 2950 422 3222 751 
Q 3494 1081 3494 1831 
L 3494 4666 
L 4128 4666 
L 4128 1753 
Q 4128 841 3676 375 
Q 3225 -91 2344 -91 
Q 1459 -91 1007 375 
Q 556 841 556 1753 
L 556 4666 
z
" transform="scale(0.015625)"/>
        <path id="DejaVuSans-53" d="M 3425 4513 
L 3425 3897 
Q 3066 4069 2747 4153 
Q 2428 4238 2131 4238 
Q 1616 4238 1336 4038 
Q 1056 3838 1056 3469 
Q 1056 3159 1242 3001 
Q 1428 2844 1947 2747 
L 2328 2669 
Q 3034 2534 3370 2195 
Q 3706 1856 3706 1288 
Q 3706 609 3251 259 
Q 2797 -91 1919 -91 
Q 1588 -91 1214 -16 
Q 841 59 441 206 
L 441 856 
Q 825 641 1194 531 
Q 1563 422 1919 422 
Q 2459 422 2753 634 
Q 3047 847 3047 1241 
Q 3047 1584 2836 1778 
Q 2625 1972 2144 2069 
L 1759 2144 
Q 1053 2284 737 2584 
Q 422 2884 422 3419 
Q 422 4038 858 4394 
Q 1294 4750 2059 4750 
Q 2388 4750 2728 4690 
Q 3069 4631 3425 4513 
z
" transform="scale(0.015625)"/>
       </defs>
       <use xlink:href="#DejaVuSans-55"/>
       <use xlink:href="#DejaVuSans-53" x="73.193359"/>
      </g>
     </g>
    </g>
    <g id="xtick_2">
     <g id="line2d_2"/>
     <g id="text_2">
      <!-- GB -->
      <g transform="translate(170.821621 451.098125)scale(0.12 -0.12)">
       <defs>
        <path id="DejaVuSans-47" d="M 3809 666 
L 3809 1919 
L 2778 1919 
L 2778 2438 
L 4434 2438 
L 4434 434 
Q 4069 175 3628 42 
Q 3188 -91 2688 -91 
Q 1594 -91 976 548 
Q 359 1188 359 2328 
Q 359 3472 976 4111 
Q 1594 4750 2688 4750 
Q 3144 4750 3555 4637 
Q 3966 4525 4313 4306 
L 4313 3634 
Q 3963 3931 3569 4081 
Q 3175 4231 2741 4231 
Q 1884 4231 1454 3753 
Q 1025 3275 1025 2328 
Q 1025 1384 1454 906 
Q 1884 428 2741 428 
Q 3075 428 3337 486 
Q 3600 544 3809 666 
z
" transform="scale(0.015625)"/>
        <path id="DejaVuSans-42" d="M 1259 2228 
L 1259 519 
L 2272 519 
Q 2781 519 3026 730 
Q 3272 941 3272 1375 
Q 3272 1813 3026 2020 
Q 2781 2228 2272 2228 
L 1259 2228 
z
M 1259 4147 
L 1259 2741 
L 2194 2741 
Q 2656 2741 2882 2914 
Q 3109 3088 3109 3444 
Q 3109 3797 2882 3972 
Q 2656 4147 2194 4147 
L 1259 4147 
z
M 628 4666 
L 2241 4666 
Q 2963 4666 3353 4366 
Q 3744 4066 3744 3513 
Q 3744 3084 3544 2831 
Q 3344 2578 2956 2516 
Q 3422 2416 3680 2098 
Q 3938 1781 3938 1306 
Q 3938 681 3513 340 
Q 3088 0 2303 0 
L 628 0 
L 628 4666 
z
" transform="scale(0.015625)"/>
       </defs>
       <use xlink:href="#DejaVuSans-47"/>
       <use xlink:href="#DejaVuSans-42" x="77.490234"/>
      </g>
     </g>
    </g>
    <g id="xtick_3">
     <g id="line2d_3"/>
     <g id="text_3">
      <!-- JM -->
      <g transform="translate(241.593122 451.098125)scale(0.12 -0.12)">
       <defs>
        <path id="DejaVuSans-4a" d="M 628 4666 
L 1259 4666 
L 1259 325 
Q 1259 -519 939 -900 
Q 619 -1281 -91 -1281 
L -331 -1281 
L -331 -750 
L -134 -750 
Q 284 -750 456 -515 
Q 628 -281 628 325 
L 628 4666 
z
" transform="scale(0.015625)"/>
        <path id="DejaVuSans-4d" d="M 628 4666 
L 1569 4666 
L 2759 1491 
L 3956 4666 
L 4897 4666 
L 4897 0 
L 4281 0 
L 4281 4097 
L 3078 897 
L 2444 897 
L 1241 4097 
L 1241 0 
L 628 0 
L 628 4666 
z
" transform="scale(0.015625)"/>
       </defs>
       <use xlink:href="#DejaVuSans-4a"/>
       <use xlink:href="#DejaVuSans-4d" x="29.492188"/>
      </g>
     </g>
    </g>
    <g id="xtick_4">
     <g id="line2d_4"/>
     <g id="text_4">
      <!-- DE -->
      <g transform="translate(309.081498 451.098125)scale(0.12 -0.12)">
       <defs>
        <path id="DejaVuSans-44" d="M 1259 4147 
L 1259 519 
L 2022 519 
Q 2988 519 3436 956 
Q 3884 1394 3884 2338 
Q 3884 3275 3436 3711 
Q 2988 4147 2022 4147 
L 1259 4147 
z
M 628 4666 
L 1925 4666 
Q 3281 4666 3915 4102 
Q 4550 3538 4550 2338 
Q 4550 1131 3912 565 
Q 3275 0 1925 0 
L 628 0 
L 628 4666 
z
" transform="scale(0.015625)"/>
        <path id="DejaVuSans-45" d="M 628 4666 
L 3578 4666 
L 3578 4134 
L 1259 4134 
L 1259 2753 
L 3481 2753 
L 3481 2222 
L 1259 2222 
L 1259 531 
L 3634 531 
L 3634 0 
L 628 0 
L 628 4666 
z
" transform="scale(0.015625)"/>
       </defs>
       <use xlink:href="#DejaVuSans-44"/>
       <use xlink:href="#DejaVuSans-45" x="77.001953"/>
      </g>
     </g>
    </g>
    <g id="xtick_5">
     <g id="line2d_5"/>
     <g id="text_5">
      <!-- CA -->
      <g transform="translate(378.151437 451.098125)scale(0.12 -0.12)">
       <defs>
        <path id="DejaVuSans-43" d="M 4122 4306 
L 4122 3641 
Q 3803 3938 3442 4084 
Q 3081 4231 2675 4231 
Q 1875 4231 1450 3742 
Q 1025 3253 1025 2328 
Q 1025 1406 1450 917 
Q 1875 428 2675 428 
Q 3081 428 3442 575 
Q 3803 722 4122 1019 
L 4122 359 
Q 3791 134 3420 21 
Q 3050 -91 2638 -91 
Q 1578 -91 968 557 
Q 359 1206 359 2328 
Q 359 3453 968 4101 
Q 1578 4750 2638 4750 
Q 3056 4750 3426 4639 
Q 3797 4528 4122 4306 
z
" transform="scale(0.015625)"/>
        <path id="DejaVuSans-41" d="M 2188 4044 
L 1331 1722 
L 3047 1722 
L 2188 4044 
z
M 1831 4666 
L 2547 4666 
L 4325 0 
L 3669 0 
L 3244 1197 
L 1141 1197 
L 716 0 
L 50 0 
L 1831 4666 
z
" transform="scale(0.015625)"/>
       </defs>
       <use xlink:href="#DejaVuSans-43"/>
       <use xlink:href="#DejaVuSans-41" x="69.824219"/>
      </g>
     </g>
    </g>
    <g id="xtick_6">
     <g id="line2d_6"/>
     <g id="text_6">
      <!-- FR -->
      <g transform="translate(447.778251 451.098125)scale(0.12 -0.12)">
       <defs>
        <path id="DejaVuSans-46" d="M 628 4666 
L 3309 4666 
L 3309 4134 
L 1259 4134 
L 1259 2759 
L 3109 2759 
L 3109 2228 
L 1259 2228 
L 1259 0 
L 628 0 
L 628 4666 
z
" transform="scale(0.015625)"/>
        <path id="DejaVuSans-52" d="M 2841 2188 
Q 3044 2119 3236 1894 
Q 3428 1669 3622 1275 
L 4263 0 
L 3584 0 
L 2988 1197 
Q 2756 1666 2539 1819 
Q 2322 1972 1947 1972 
L 1259 1972 
L 1259 0 
L 628 0 
L 628 4666 
L 2053 4666 
Q 2853 4666 3247 4331 
Q 3641 3997 3641 3322 
Q 3641 2881 3436 2590 
Q 3231 2300 2841 2188 
z
M 1259 4147 
L 1259 2491 
L 2053 2491 
Q 2509 2491 2742 2702 
Q 2975 2913 2975 3322 
Q 2975 3731 2742 3939 
Q 2509 4147 2053 4147 
L 1259 4147 
z
" transform="scale(0.015625)"/>
       </defs>
       <use xlink:href="#DejaVuSans-46"/>
       <use xlink:href="#DejaVuSans-52" x="57.519531"/>
      </g>
     </g>
    </g>
    <g id="xtick_7">
     <g id="line2d_7"/>
     <g id="text_7">
      <!-- BR -->
      <g transform="translate(516.065377 451.098125)scale(0.12 -0.12)">
       <use xlink:href="#DejaVuSans-42"/>
       <use xlink:href="#DejaVuSans-52" x="68.603516"/>
      </g>
     </g>
    </g>
    <g id="xtick_8">
     <g id="line2d_8"/>
     <g id="text_8">
      <!-- SE -->
      <g transform="translate(585.70344 451.098125)scale(0.12 -0.12)">
       <use xlink:href="#DejaVuSans-53"/>
       <use xlink:href="#DejaVuSans-45" x="63.476562"/>
      </g>
     </g>
    </g>
    <g id="xtick_9">
     <g id="line2d_9"/>
     <g id="text_9">
      <!-- AR -->
      <g transform="translate(653.983067 451.098125)scale(0.12 -0.12)">
       <use xlink:href="#DejaVuSans-41"/>
       <use xlink:href="#DejaVuSans-52" x="68.408203"/>
      </g>
     </g>
    </g>
    <g id="xtick_10">
     <g id="line2d_10"/>
     <g id="text_10">
      <!-- ES -->
      <g transform="translate(723.608943 451.098125)scale(0.12 -0.12)">
       <use xlink:href="#DejaVuSans-45"/>
       <use xlink:href="#DejaVuSans-53" x="63.183594"/>
      </g>
     </g>
    </g>
    <g id="text_11">
     <!-- Country the artist was born or the band was founded -->
     <g transform="translate(60.64375 466.711875)scale(0.12 -0.12)">
      <defs>
       <path id="DejaVuSans-6f" d="M 1959 3097 
Q 1497 3097 1228 2736 
Q 959 2375 959 1747 
Q 959 1119 1226 758 
Q 1494 397 1959 397 
Q 2419 397 2687 759 
Q 2956 1122 2956 1747 
Q 2956 2369 2687 2733 
Q 2419 3097 1959 3097 
z
M 1959 3584 
Q 2709 3584 3137 3096 
Q 3566 2609 3566 1747 
Q 3566 888 3137 398 
Q 2709 -91 1959 -91 
Q 1206 -91 779 398 
Q 353 888 353 1747 
Q 353 2609 779 3096 
Q 1206 3584 1959 3584 
z
" transform="scale(0.015625)"/>
       <path id="DejaVuSans-75" d="M 544 1381 
L 544 3500 
L 1119 3500 
L 1119 1403 
Q 1119 906 1312 657 
Q 1506 409 1894 409 
Q 2359 409 2629 706 
Q 2900 1003 2900 1516 
L 2900 3500 
L 3475 3500 
L 3475 0 
L 2900 0 
L 2900 538 
Q 2691 219 2414 64 
Q 2138 -91 1772 -91 
Q 1169 -91 856 284 
Q 544 659 544 1381 
z
M 1991 3584 
L 1991 3584 
z
" transform="scale(0.015625)"/>
       <path id="DejaVuSans-6e" d="M 3513 2113 
L 3513 0 
L 2938 0 
L 2938 2094 
Q 2938 2591 2744 2837 
Q 2550 3084 2163 3084 
Q 1697 3084 1428 2787 
Q 1159 2491 1159 1978 
L 1159 0 
L 581 0 
L 581 3500 
L 1159 3500 
L 1159 2956 
Q 1366 3272 1645 3428 
Q 1925 3584 2291 3584 
Q 2894 3584 3203 3211 
Q 3513 2838 3513 2113 
z
" transform="scale(0.015625)"/>
       <path id="DejaVuSans-74" d="M 1172 4494 
L 1172 3500 
L 2356 3500 
L 2356 3053 
L 1172 3053 
L 1172 1153 
Q 1172 725 1289 603 
Q 1406 481 1766 481 
L 2356 481 
L 2356 0 
L 1766 0 
Q 1100 0 847 248 
Q 594 497 594 1153 
L 594 3053 
L 172 3053 
L 172 3500 
L 594 3500 
L 594 4494 
L 1172 4494 
z
" transform="scale(0.015625)"/>
       <path id="DejaVuSans-72" d="M 2631 2963 
Q 2534 3019 2420 3045 
Q 2306 3072 2169 3072 
Q 1681 3072 1420 2755 
Q 1159 2438 1159 1844 
L 1159 0 
L 581 0 
L 581 3500 
L 1159 3500 
L 1159 2956 
Q 1341 3275 1631 3429 
Q 1922 3584 2338 3584 
Q 2397 3584 2469 3576 
Q 2541 3569 2628 3553 
L 2631 2963 
z
" transform="scale(0.015625)"/>
       <path id="DejaVuSans-79" d="M 2059 -325 
Q 1816 -950 1584 -1140 
Q 1353 -1331 966 -1331 
L 506 -1331 
L 506 -850 
L 844 -850 
Q 1081 -850 1212 -737 
Q 1344 -625 1503 -206 
L 1606 56 
L 191 3500 
L 800 3500 
L 1894 763 
L 2988 3500 
L 3597 3500 
L 2059 -325 
z
" transform="scale(0.015625)"/>
       <path id="DejaVuSans-20" transform="scale(0.015625)"/>
       <path id="DejaVuSans-68" d="M 3513 2113 
L 3513 0 
L 2938 0 
L 2938 2094 
Q 2938 2591 2744 2837 
Q 2550 3084 2163 3084 
Q 1697 3084 1428 2787 
Q 1159 2491 1159 1978 
L 1159 0 
L 581 0 
L 581 4863 
L 1159 4863 
L 1159 2956 
Q 1366 3272 1645 3428 
Q 1925 3584 2291 3584 
Q 2894 3584 3203 3211 
Q 3513 2838 3513 2113 
z
" transform="scale(0.015625)"/>
       <path id="DejaVuSans-65" d="M 3597 1894 
L 3597 1613 
L 953 1613 
Q 991 1019 1311 708 
Q 1631 397 2203 397 
Q 2534 397 2845 478 
Q 3156 559 3463 722 
L 3463 178 
Q 3153 47 2828 -22 
Q 2503 -91 2169 -91 
Q 1331 -91 842 396 
Q 353 884 353 1716 
Q 353 2575 817 3079 
Q 1281 3584 2069 3584 
Q 2775 3584 3186 3129 
Q 3597 2675 3597 1894 
z
M 3022 2063 
Q 3016 2534 2758 2815 
Q 2500 3097 2075 3097 
Q 1594 3097 1305 2825 
Q 1016 2553 972 2059 
L 3022 2063 
z
" transform="scale(0.015625)"/>
       <path id="DejaVuSans-61" d="M 2194 1759 
Q 1497 1759 1228 1600 
Q 959 1441 959 1056 
Q 959 750 1161 570 
Q 1363 391 1709 391 
Q 2188 391 2477 730 
Q 2766 1069 2766 1631 
L 2766 1759 
L 2194 1759 
z
M 3341 1997 
L 3341 0 
L 2766 0 
L 2766 531 
Q 2569 213 2275 61 
Q 1981 -91 1556 -91 
Q 1019 -91 701 211 
Q 384 513 384 1019 
Q 384 1609 779 1909 
Q 1175 2209 1959 2209 
L 2766 2209 
L 2766 2266 
Q 2766 2663 2505 2880 
Q 2244 3097 1772 3097 
Q 1472 3097 1187 3025 
Q 903 2953 641 2809 
L 641 3341 
Q 956 3463 1253 3523 
Q 1550 3584 1831 3584 
Q 2591 3584 2966 3190 
Q 3341 2797 3341 1997 
z
" transform="scale(0.015625)"/>
       <path id="DejaVuSans-69" d="M 603 3500 
L 1178 3500 
L 1178 0 
L 603 0 
L 603 3500 
z
M 603 4863 
L 1178 4863 
L 1178 4134 
L 603 4134 
L 603 4863 
z
" transform="scale(0.015625)"/>
       <path id="DejaVuSans-73" d="M 2834 3397 
L 2834 2853 
Q 2591 2978 2328 3040 
Q 2066 3103 1784 3103 
Q 1356 3103 1142 2972 
Q 928 2841 928 2578 
Q 928 2378 1081 2264 
Q 1234 2150 1697 2047 
L 1894 2003 
Q 2506 1872 2764 1633 
Q 3022 1394 3022 966 
Q 3022 478 2636 193 
Q 2250 -91 1575 -91 
Q 1294 -91 989 -36 
Q 684 19 347 128 
L 347 722 
Q 666 556 975 473 
Q 1284 391 1588 391 
Q 1994 391 2212 530 
Q 2431 669 2431 922 
Q 2431 1156 2273 1281 
Q 2116 1406 1581 1522 
L 1381 1569 
Q 847 1681 609 1914 
Q 372 2147 372 2553 
Q 372 3047 722 3315 
Q 1072 3584 1716 3584 
Q 2034 3584 2315 3537 
Q 2597 3491 2834 3397 
z
" transform="scale(0.015625)"/>
       <path id="DejaVuSans-77" d="M 269 3500 
L 844 3500 
L 1563 769 
L 2278 3500 
L 2956 3500 
L 3675 769 
L 4391 3500 
L 4966 3500 
L 4050 0 
L 3372 0 
L 2619 2869 
L 1863 0 
L 1184 0 
L 269 3500 
z
" transform="scale(0.015625)"/>
       <path id="DejaVuSans-62" d="M 3116 1747 
Q 3116 2381 2855 2742 
Q 2594 3103 2138 3103 
Q 1681 3103 1420 2742 
Q 1159 2381 1159 1747 
Q 1159 1113 1420 752 
Q 1681 391 2138 391 
Q 2594 391 2855 752 
Q 3116 1113 3116 1747 
z
M 1159 2969 
Q 1341 3281 1617 3432 
Q 1894 3584 2278 3584 
Q 2916 3584 3314 3078 
Q 3713 2572 3713 1747 
Q 3713 922 3314 415 
Q 2916 -91 2278 -91 
Q 1894 -91 1617 61 
Q 1341 213 1159 525 
L 1159 0 
L 581 0 
L 581 4863 
L 1159 4863 
L 1159 2969 
z
" transform="scale(0.015625)"/>
       <path id="DejaVuSans-64" d="M 2906 2969 
L 2906 4863 
L 3481 4863 
L 3481 0 
L 2906 0 
L 2906 525 
Q 2725 213 2448 61 
Q 2172 -91 1784 -91 
Q 1150 -91 751 415 
Q 353 922 353 1747 
Q 353 2572 751 3078 
Q 1150 3584 1784 3584 
Q 2172 3584 2448 3432 
Q 2725 3281 2906 2969 
z
M 947 1747 
Q 947 1113 1208 752 
Q 1469 391 1925 391 
Q 2381 391 2643 752 
Q 2906 1113 2906 1747 
Q 2906 2381 2643 2742 
Q 2381 3103 1925 3103 
Q 1469 3103 1208 2742 
Q 947 2381 947 1747 
z
" transform="scale(0.015625)"/>
       <path id="DejaVuSans-66" d="M 2375 4863 
L 2375 4384 
L 1825 4384 
Q 1516 4384 1395 4259 
Q 1275 4134 1275 3809 
L 1275 3500 
L 2222 3500 
L 2222 3053 
L 1275 3053 
L 1275 0 
L 697 0 
L 697 3053 
L 147 3053 
L 147 3500 
L 697 3500 
L 697 3744 
Q 697 4328 969 4595 
Q 1241 4863 1831 4863 
L 2375 4863 
z
" transform="scale(0.015625)"/>
      </defs>
      <use xlink:href="#DejaVuSans-43"/>
      <use xlink:href="#DejaVuSans-6f" x="69.824219"/>
      <use xlink:href="#DejaVuSans-75" x="131.005859"/>
      <use xlink:href="#DejaVuSans-6e" x="194.384766"/>
      <use xlink:href="#DejaVuSans-74" x="257.763672"/>
      <use xlink:href="#DejaVuSans-72" x="296.972656"/>
      <use xlink:href="#DejaVuSans-79" x="338.085938"/>
      <use xlink:href="#DejaVuSans-20" x="397.265625"/>
      <use xlink:href="#DejaVuSans-74" x="429.052734"/>
      <use xlink:href="#DejaVuSans-68" x="468.261719"/>
      <use xlink:href="#DejaVuSans-65" x="531.640625"/>
      <use xlink:href="#DejaVuSans-20" x="593.164062"/>
      <use xlink:href="#DejaVuSans-61" x="624.951172"/>
      <use xlink:href="#DejaVuSans-72" x="686.230469"/>
      <use xlink:href="#DejaVuSans-74" x="727.34375"/>
      <use xlink:href="#DejaVuSans-69" x="766.552734"/>
      <use xlink:href="#DejaVuSans-73" x="794.335938"/>
      <use xlink:href="#DejaVuSans-74" x="846.435547"/>
      <use xlink:href="#DejaVuSans-20" x="885.644531"/>
      <use xlink:href="#DejaVuSans-77" x="917.431641"/>
      <use xlink:href="#DejaVuSans-61" x="999.21875"/>
      <use xlink:href="#DejaVuSans-73" x="1060.498047"/>
      <use xlink:href="#DejaVuSans-20" x="1112.597656"/>
      <use xlink:href="#DejaVuSans-62" x="1144.384766"/>
      <use xlink:href="#DejaVuSans-6f" x="1207.861328"/>
      <use xlink:href="#DejaVuSans-72" x="1269.042969"/>
      <use xlink:href="#DejaVuSans-6e" x="1308.40625"/>
      <use xlink:href="#DejaVuSans-20" x="1371.785156"/>
      <use xlink:href="#DejaVuSans-6f" x="1403.572266"/>
      <use xlink:href="#DejaVuSans-72" x="1464.753906"/>
      <use xlink:href="#DejaVuSans-20" x="1505.867188"/>
      <use xlink:href="#DejaVuSans-74" x="1537.654297"/>
      <use xlink:href="#DejaVuSans-68" x="1576.863281"/>
      <use xlink:href="#DejaVuSans-65" x="1640.242188"/>
      <use xlink:href="#DejaVuSans-20" x="1701.765625"/>
      <use xlink:href="#DejaVuSans-62" x="1733.552734"/>
      <use xlink:href="#DejaVuSans-61" x="1797.029297"/>
      <use xlink:href="#DejaVuSans-6e" x="1858.308594"/>
      <use xlink:href="#DejaVuSans-64" x="1921.6875"/>
      <use xlink:href="#DejaVuSans-20" x="1985.164062"/>
      <use xlink:href="#DejaVuSans-77" x="2016.951172"/>
      <use xlink:href="#DejaVuSans-61" x="2098.738281"/>
      <use xlink:href="#DejaVuSans-73" x="2160.017578"/>
      <use xlink:href="#DejaVuSans-20" x="2212.117188"/>
      <use xlink:href="#DejaVuSans-66" x="2243.904297"/>
      <use xlink:href="#DejaVuSans-6f" x="2279.109375"/>
      <use xlink:href="#DejaVuSans-75" x="2340.291016"/>
      <use xlink:href="#DejaVuSans-6e" x="2403.669922"/>
      <use xlink:href="#DejaVuSans-64" x="2467.048828"/>
      <use xlink:href="#DejaVuSans-65" x="2530.525391"/>
      <use xlink:href="#DejaVuSans-64" x="2592.048828"/>
     </g>
    </g>
   </g>
   <g id="matplotlib.axis_2">
    <g id="ytick_1">
     <g id="line2d_11">
      <path d="M 60.64375 438.48 
L 781.2 438.48 
" clip-path="url(#pcb99465da6)" style="fill: none; stroke: #b0b0b0; stroke-opacity: 0.4; stroke-width: 0.8; stroke-linecap: square"/>
     </g>
     <g id="line2d_12"/>
     <g id="text_12">
      <!-- 0 -->
      <g transform="translate(49.50875 443.039062)scale(0.12 -0.12)">
       <defs>
        <path id="DejaVuSans-30" d="M 2034 4250 
Q 1547 4250 1301 3770 
Q 1056 3291 1056 2328 
Q 1056 1369 1301 889 
Q 1547 409 2034 409 
Q 2525 409 2770 889 
Q 3016 1369 3016 2328 
Q 3016 3291 2770 3770 
Q 2525 4250 2034 4250 
z
M 2034 4750 
Q 2819 4750 3233 4129 
Q 3647 3509 3647 2328 
Q 3647 1150 3233 529 
Q 2819 -91 2034 -91 
Q 1250 -91 836 529 
Q 422 1150 422 2328 
Q 422 3509 836 4129 
Q 1250 4750 2034 4750 
z
" transform="scale(0.015625)"/>
       </defs>
       <use xlink:href="#DejaVuSans-30"/>
      </g>
     </g>
    </g>
    <g id="ytick_2">
     <g id="line2d_13">
      <path d="M 60.64375 346.5 
L 781.2 346.5 
" clip-path="url(#pcb99465da6)" style="fill: none; stroke: #b0b0b0; stroke-opacity: 0.4; stroke-width: 0.8; stroke-linecap: square"/>
     </g>
     <g id="line2d_14"/>
     <g id="text_13">
      <!-- 500 -->
      <g transform="translate(34.23875 351.059062)scale(0.12 -0.12)">
       <defs>
        <path id="DejaVuSans-35" d="M 691 4666 
L 3169 4666 
L 3169 4134 
L 1269 4134 
L 1269 2991 
Q 1406 3038 1543 3061 
Q 1681 3084 1819 3084 
Q 2600 3084 3056 2656 
Q 3513 2228 3513 1497 
Q 3513 744 3044 326 
Q 2575 -91 1722 -91 
Q 1428 -91 1123 -41 
Q 819 9 494 109 
L 494 744 
Q 775 591 1075 516 
Q 1375 441 1709 441 
Q 2250 441 2565 725 
Q 2881 1009 2881 1497 
Q 2881 1984 2565 2268 
Q 2250 2553 1709 2553 
Q 1456 2553 1204 2497 
Q 953 2441 691 2322 
L 691 4666 
z
" transform="scale(0.015625)"/>
       </defs>
       <use xlink:href="#DejaVuSans-35"/>
       <use xlink:href="#DejaVuSans-30" x="63.623047"/>
       <use xlink:href="#DejaVuSans-30" x="127.246094"/>
      </g>
     </g>
    </g>
    <g id="ytick_3">
     <g id="line2d_15">
      <path d="M 60.64375 254.52 
L 781.2 254.52 
" clip-path="url(#pcb99465da6)" style="fill: none; stroke: #b0b0b0; stroke-opacity: 0.4; stroke-width: 0.8; stroke-linecap: square"/>
     </g>
     <g id="line2d_16"/>
     <g id="text_14">
      <!-- 1000 -->
      <g transform="translate(26.60375 259.079062)scale(0.12 -0.12)">
       <defs>
        <path id="DejaVuSans-31" d="M 794 531 
L 1825 531 
L 1825 4091 
L 703 3866 
L 703 4441 
L 1819 4666 
L 2450 4666 
L 2450 531 
L 3481 531 
L 3481 0 
L 794 0 
L 794 531 
z
" transform="scale(0.015625)"/>
       </defs>
       <use xlink:href="#DejaVuSans-31"/>
       <use xlink:href="#DejaVuSans-30" x="63.623047"/>
       <use xlink:href="#DejaVuSans-30" x="127.246094"/>
       <use xlink:href="#DejaVuSans-30" x="190.869141"/>
      </g>
     </g>
    </g>
    <g id="ytick_4">
     <g id="line2d_17">
      <path d="M 60.64375 162.54 
L 781.2 162.54 
" clip-path="url(#pcb99465da6)" style="fill: none; stroke: #b0b0b0; stroke-opacity: 0.4; stroke-width: 0.8; stroke-linecap: square"/>
     </g>
     <g id="line2d_18"/>
     <g id="text_15">
      <!-- 1500 -->
      <g transform="translate(26.60375 167.099063)scale(0.12 -0.12)">
       <use xlink:href="#DejaVuSans-31"/>
       <use xlink:href="#DejaVuSans-35" x="63.623047"/>
       <use xlink:href="#DejaVuSans-30" x="127.246094"/>
       <use xlink:href="#DejaVuSans-30" x="190.869141"/>
      </g>
     </g>
    </g>
    <g id="ytick_5">
     <g id="line2d_19">
      <path d="M 60.64375 70.56 
L 781.2 70.56 
" clip-path="url(#pcb99465da6)" style="fill: none; stroke: #b0b0b0; stroke-opacity: 0.4; stroke-width: 0.8; stroke-linecap: square"/>
     </g>
     <g id="line2d_20"/>
     <g id="text_16">
      <!-- 2000 -->
      <g transform="translate(26.60375 75.119062)scale(0.12 -0.12)">
       <defs>
        <path id="DejaVuSans-32" d="M 1228 531 
L 3431 531 
L 3431 0 
L 469 0 
L 469 531 
Q 828 903 1448 1529 
Q 2069 2156 2228 2338 
Q 2531 2678 2651 2914 
Q 2772 3150 2772 3378 
Q 2772 3750 2511 3984 
Q 2250 4219 1831 4219 
Q 1534 4219 1204 4116 
Q 875 4013 500 3803 
L 500 4441 
Q 881 4594 1212 4672 
Q 1544 4750 1819 4750 
Q 2544 4750 2975 4387 
Q 3406 4025 3406 3419 
Q 3406 3131 3298 2873 
Q 3191 2616 2906 2266 
Q 2828 2175 2409 1742 
Q 1991 1309 1228 531 
z
" transform="scale(0.015625)"/>
       </defs>
       <use xlink:href="#DejaVuSans-32"/>
       <use xlink:href="#DejaVuSans-30" x="63.623047"/>
       <use xlink:href="#DejaVuSans-30" x="127.246094"/>
       <use xlink:href="#DejaVuSans-30" x="190.869141"/>
      </g>
     </g>
    </g>
    <g id="text_17">
     <!-- Count of famous musicians and bands -->
     <g transform="translate(20.108125 369.410625)rotate(-90)scale(0.12 -0.12)">
      <defs>
       <path id="DejaVuSans-6d" d="M 3328 2828 
Q 3544 3216 3844 3400 
Q 4144 3584 4550 3584 
Q 5097 3584 5394 3201 
Q 5691 2819 5691 2113 
L 5691 0 
L 5113 0 
L 5113 2094 
Q 5113 2597 4934 2840 
Q 4756 3084 4391 3084 
Q 3944 3084 3684 2787 
Q 3425 2491 3425 1978 
L 3425 0 
L 2847 0 
L 2847 2094 
Q 2847 2600 2669 2842 
Q 2491 3084 2119 3084 
Q 1678 3084 1418 2786 
Q 1159 2488 1159 1978 
L 1159 0 
L 581 0 
L 581 3500 
L 1159 3500 
L 1159 2956 
Q 1356 3278 1631 3431 
Q 1906 3584 2284 3584 
Q 2666 3584 2933 3390 
Q 3200 3197 3328 2828 
z
" transform="scale(0.015625)"/>
       <path id="DejaVuSans-63" d="M 3122 3366 
L 3122 2828 
Q 2878 2963 2633 3030 
Q 2388 3097 2138 3097 
Q 1578 3097 1268 2742 
Q 959 2388 959 1747 
Q 959 1106 1268 751 
Q 1578 397 2138 397 
Q 2388 397 2633 464 
Q 2878 531 3122 666 
L 3122 134 
Q 2881 22 2623 -34 
Q 2366 -91 2075 -91 
Q 1284 -91 818 406 
Q 353 903 353 1747 
Q 353 2603 823 3093 
Q 1294 3584 2113 3584 
Q 2378 3584 2631 3529 
Q 2884 3475 3122 3366 
z
" transform="scale(0.015625)"/>
      </defs>
      <use xlink:href="#DejaVuSans-43"/>
      <use xlink:href="#DejaVuSans-6f" x="69.824219"/>
      <use xlink:href="#DejaVuSans-75" x="131.005859"/>
      <use xlink:href="#DejaVuSans-6e" x="194.384766"/>
      <use xlink:href="#DejaVuSans-74" x="257.763672"/>
      <use xlink:href="#DejaVuSans-20" x="296.972656"/>
      <use xlink:href="#DejaVuSans-6f" x="328.759766"/>
      <use xlink:href="#DejaVuSans-66" x="389.941406"/>
      <use xlink:href="#DejaVuSans-20" x="425.146484"/>
      <use xlink:href="#DejaVuSans-66" x="456.933594"/>
      <use xlink:href="#DejaVuSans-61" x="492.138672"/>
      <use xlink:href="#DejaVuSans-6d" x="553.417969"/>
      <use xlink:href="#DejaVuSans-6f" x="650.830078"/>
      <use xlink:href="#DejaVuSans-75" x="712.011719"/>
      <use xlink:href="#DejaVuSans-73" x="775.390625"/>
      <use xlink:href="#DejaVuSans-20" x="827.490234"/>
      <use xlink:href="#DejaVuSans-6d" x="859.277344"/>
      <use xlink:href="#DejaVuSans-75" x="956.689453"/>
      <use xlink:href="#DejaVuSans-73" x="1020.068359"/>
      <use xlink:href="#DejaVuSans-69" x="1072.167969"/>
      <use xlink:href="#DejaVuSans-63" x="1099.951172"/>
      <use xlink:href="#DejaVuSans-69" x="1154.931641"/>
      <use xlink:href="#DejaVuSans-61" x="1182.714844"/>
      <use xlink:href="#DejaVuSans-6e" x="1243.994141"/>
      <use xlink:href="#DejaVuSans-73" x="1307.373047"/>
      <use xlink:href="#DejaVuSans-20" x="1359.472656"/>
      <use xlink:href="#DejaVuSans-61" x="1391.259766"/>
      <use xlink:href="#DejaVuSans-6e" x="1452.539062"/>
      <use xlink:href="#DejaVuSans-64" x="1515.917969"/>
      <use xlink:href="#DejaVuSans-20" x="1579.394531"/>
      <use xlink:href="#DejaVuSans-62" x="1611.181641"/>
      <use xlink:href="#DejaVuSans-61" x="1674.658203"/>
      <use xlink:href="#DejaVuSans-6e" x="1735.9375"/>
      <use xlink:href="#DejaVuSans-64" x="1799.316406"/>
      <use xlink:href="#DejaVuSans-73" x="1862.792969"/>
     </g>
    </g>
   </g>
   <g id="patch_3">
    <path d="M 93.396307 438.48 
L 127.872682 438.48 
L 127.872682 142.3044 
L 93.396307 142.3044 
z
" clip-path="url(#pcb99465da6)" style="fill: #fa9600; stroke: #a9a9a9; stroke-width: 0.6; stroke-linejoin: miter"/>
   </g>
   <g id="patch_4">
    <path d="M 162.349058 438.48 
L 196.825434 438.48 
L 196.825434 366.91956 
L 162.349058 366.91956 
z
" clip-path="url(#pcb99465da6)" style="fill: #fa9600; stroke: #a9a9a9; stroke-width: 0.6; stroke-linejoin: miter"/>
   </g>
   <g id="patch_5">
    <path d="M 231.301809 438.48 
L 265.778185 438.48 
L 265.778185 423.39528 
L 231.301809 423.39528 
z
" clip-path="url(#pcb99465da6)" style="fill: #fa9600; stroke: #a9a9a9; stroke-width: 0.6; stroke-linejoin: miter"/>
   </g>
   <g id="patch_6">
    <path d="M 300.25456 438.48 
L 334.730936 438.48 
L 334.730936 429.64992 
L 300.25456 429.64992 
z
" clip-path="url(#pcb99465da6)" style="fill: #640019; stroke: #a9a9a9; stroke-width: 0.6; stroke-linejoin: miter"/>
   </g>
   <g id="patch_7">
    <path d="M 369.207312 438.48 
L 403.683687 438.48 
L 403.683687 430.01784 
L 369.207312 430.01784 
z
" clip-path="url(#pcb99465da6)" style="fill: #640019; stroke: #a9a9a9; stroke-width: 0.6; stroke-linejoin: miter"/>
   </g>
   <g id="patch_8">
    <path d="M 438.160063 438.48 
L 472.636438 438.48 
L 472.636438 430.38576 
L 438.160063 430.38576 
z
" clip-path="url(#pcb99465da6)" style="fill: #640019; stroke: #a9a9a9; stroke-width: 0.6; stroke-linejoin: miter"/>
   </g>
   <g id="patch_9">
    <path d="M 507.112814 438.48 
L 541.58919 438.48 
L 541.58919 432.9612 
L 507.112814 432.9612 
z
" clip-path="url(#pcb99465da6)" style="fill: #640019; stroke: #a9a9a9; stroke-width: 0.6; stroke-linejoin: miter"/>
   </g>
   <g id="patch_10">
    <path d="M 576.065565 438.48 
L 610.541941 438.48 
L 610.541941 433.14516 
L 576.065565 433.14516 
z
" clip-path="url(#pcb99465da6)" style="fill: #640019; stroke: #a9a9a9; stroke-width: 0.6; stroke-linejoin: miter"/>
   </g>
   <g id="patch_11">
    <path d="M 645.018316 438.48 
L 679.494692 438.48 
L 679.494692 433.32912 
L 645.018316 433.32912 
z
" clip-path="url(#pcb99465da6)" style="fill: #640019; stroke: #a9a9a9; stroke-width: 0.6; stroke-linejoin: miter"/>
   </g>
   <g id="patch_12">
    <path d="M 713.971068 438.48 
L 748.447443 438.48 
L 748.447443 433.881 
L 713.971068 433.881 
z
" clip-path="url(#pcb99465da6)" style="fill: #640019; stroke: #a9a9a9; stroke-width: 0.6; stroke-linejoin: miter"/>
   </g>
   <g id="line2d_21">
    <path d="M 60.64375 438.48 
L 781.2 438.48 
" clip-path="url(#pcb99465da6)" style="fill: none; stroke: #000000; stroke-opacity: 0.7; stroke-width: 1.3; stroke-linecap: square"/>
   </g>
   <g id="patch_13">
    <path d="M 60.64375 438.48 
L 781.2 438.48 
" style="fill: none; stroke: #000000; stroke-width: 0.8; stroke-linejoin: miter; stroke-linecap: square"/>
   </g>
   <g id="text_18">
    <!-- 1610 -->
    <g transform="translate(97.909495 117.469775)scale(0.1 -0.1)">
     <defs>
      <path id="DejaVuSans-36" d="M 2113 2584 
Q 1688 2584 1439 2293 
Q 1191 2003 1191 1497 
Q 1191 994 1439 701 
Q 1688 409 2113 409 
Q 2538 409 2786 701 
Q 3034 994 3034 1497 
Q 3034 2003 2786 2293 
Q 2538 2584 2113 2584 
z
M 3366 4563 
L 3366 3988 
Q 3128 4100 2886 4159 
Q 2644 4219 2406 4219 
Q 1781 4219 1451 3797 
Q 1122 3375 1075 2522 
Q 1259 2794 1537 2939 
Q 1816 3084 2150 3084 
Q 2853 3084 3261 2657 
Q 3669 2231 3669 1497 
Q 3669 778 3244 343 
Q 2819 -91 2113 -91 
Q 1303 -91 875 529 
Q 447 1150 447 2328 
Q 447 3434 972 4092 
Q 1497 4750 2381 4750 
Q 2619 4750 2861 4703 
Q 3103 4656 3366 4563 
z
" transform="scale(0.015625)"/>
     </defs>
     <use xlink:href="#DejaVuSans-31"/>
     <use xlink:href="#DejaVuSans-36" x="63.623047"/>
     <use xlink:href="#DejaVuSans-31" x="127.246094"/>
     <use xlink:href="#DejaVuSans-30" x="190.869141"/>
    </g>
   </g>
   <g id="text_19">
    <!-- 389 -->
    <g transform="translate(170.043496 342.084935)scale(0.1 -0.1)">
     <defs>
      <path id="DejaVuSans-33" d="M 2597 2516 
Q 3050 2419 3304 2112 
Q 3559 1806 3559 1356 
Q 3559 666 3084 287 
Q 2609 -91 1734 -91 
Q 1441 -91 1130 -33 
Q 819 25 488 141 
L 488 750 
Q 750 597 1062 519 
Q 1375 441 1716 441 
Q 2309 441 2620 675 
Q 2931 909 2931 1356 
Q 2931 1769 2642 2001 
Q 2353 2234 1838 2234 
L 1294 2234 
L 1294 2753 
L 1863 2753 
Q 2328 2753 2575 2939 
Q 2822 3125 2822 3475 
Q 2822 3834 2567 4026 
Q 2313 4219 1838 4219 
Q 1578 4219 1281 4162 
Q 984 4106 628 3988 
L 628 4550 
Q 988 4650 1302 4700 
Q 1616 4750 1894 4750 
Q 2613 4750 3031 4423 
Q 3450 4097 3450 3541 
Q 3450 3153 3228 2886 
Q 3006 2619 2597 2516 
z
" transform="scale(0.015625)"/>
      <path id="DejaVuSans-38" d="M 2034 2216 
Q 1584 2216 1326 1975 
Q 1069 1734 1069 1313 
Q 1069 891 1326 650 
Q 1584 409 2034 409 
Q 2484 409 2743 651 
Q 3003 894 3003 1313 
Q 3003 1734 2745 1975 
Q 2488 2216 2034 2216 
z
M 1403 2484 
Q 997 2584 770 2862 
Q 544 3141 544 3541 
Q 544 4100 942 4425 
Q 1341 4750 2034 4750 
Q 2731 4750 3128 4425 
Q 3525 4100 3525 3541 
Q 3525 3141 3298 2862 
Q 3072 2584 2669 2484 
Q 3125 2378 3379 2068 
Q 3634 1759 3634 1313 
Q 3634 634 3220 271 
Q 2806 -91 2034 -91 
Q 1263 -91 848 271 
Q 434 634 434 1313 
Q 434 1759 690 2068 
Q 947 2378 1403 2484 
z
M 1172 3481 
Q 1172 3119 1398 2916 
Q 1625 2713 2034 2713 
Q 2441 2713 2670 2916 
Q 2900 3119 2900 3481 
Q 2900 3844 2670 4047 
Q 2441 4250 2034 4250 
Q 1625 4250 1398 4047 
Q 1172 3844 1172 3481 
z
" transform="scale(0.015625)"/>
      <path id="DejaVuSans-39" d="M 703 97 
L 703 672 
Q 941 559 1184 500 
Q 1428 441 1663 441 
Q 2288 441 2617 861 
Q 2947 1281 2994 2138 
Q 2813 1869 2534 1725 
Q 2256 1581 1919 1581 
Q 1219 1581 811 2004 
Q 403 2428 403 3163 
Q 403 3881 828 4315 
Q 1253 4750 1959 4750 
Q 2769 4750 3195 4129 
Q 3622 3509 3622 2328 
Q 3622 1225 3098 567 
Q 2575 -91 1691 -91 
Q 1453 -91 1209 -44 
Q 966 3 703 97 
z
M 1959 2075 
Q 2384 2075 2632 2365 
Q 2881 2656 2881 3163 
Q 2881 3666 2632 3958 
Q 2384 4250 1959 4250 
Q 1534 4250 1286 3958 
Q 1038 3666 1038 3163 
Q 1038 2656 1286 2365 
Q 1534 2075 1959 2075 
z
" transform="scale(0.015625)"/>
     </defs>
     <use xlink:href="#DejaVuSans-33"/>
     <use xlink:href="#DejaVuSans-38" x="63.623047"/>
     <use xlink:href="#DejaVuSans-39" x="127.246094"/>
    </g>
   </g>
   <g id="text_20">
    <!-- 82 -->
    <g transform="translate(242.177497 398.560655)scale(0.1 -0.1)">
     <use xlink:href="#DejaVuSans-38"/>
     <use xlink:href="#DejaVuSans-32" x="63.623047"/>
    </g>
   </g>
   <g id="text_21">
    <!-- 48 -->
    <g transform="translate(311.130248 404.815295)scale(0.1 -0.1)">
     <defs>
      <path id="DejaVuSans-34" d="M 2419 4116 
L 825 1625 
L 2419 1625 
L 2419 4116 
z
M 2253 4666 
L 3047 4666 
L 3047 1625 
L 3713 1625 
L 3713 1100 
L 3047 1100 
L 3047 0 
L 2419 0 
L 2419 1100 
L 313 1100 
L 313 1709 
L 2253 4666 
z
" transform="scale(0.015625)"/>
     </defs>
     <use xlink:href="#DejaVuSans-34"/>
     <use xlink:href="#DejaVuSans-38" x="63.623047"/>
    </g>
   </g>
   <g id="text_22">
    <!-- 46 -->
    <g transform="translate(380.082999 405.183215)scale(0.1 -0.1)">
     <use xlink:href="#DejaVuSans-34"/>
     <use xlink:href="#DejaVuSans-36" x="63.623047"/>
    </g>
   </g>
   <g id="text_23">
    <!-- 44 -->
    <g transform="translate(449.035751 405.551135)scale(0.1 -0.1)">
     <use xlink:href="#DejaVuSans-34"/>
     <use xlink:href="#DejaVuSans-34" x="63.623047"/>
    </g>
   </g>
   <g id="text_24">
    <!-- 30 -->
    <g transform="translate(517.988502 408.126575)scale(0.1 -0.1)">
     <use xlink:href="#DejaVuSans-33"/>
     <use xlink:href="#DejaVuSans-30" x="63.623047"/>
    </g>
   </g>
   <g id="text_25">
    <!-- 29 -->
    <g transform="translate(586.941253 408.310535)scale(0.1 -0.1)">
     <use xlink:href="#DejaVuSans-32"/>
     <use xlink:href="#DejaVuSans-39" x="63.623047"/>
    </g>
   </g>
   <g id="text_26">
    <!-- 28 -->
    <g transform="translate(655.894004 408.494495)scale(0.1 -0.1)">
     <use xlink:href="#DejaVuSans-32"/>
     <use xlink:href="#DejaVuSans-38" x="63.623047"/>
    </g>
   </g>
   <g id="text_27">
    <!-- 25 -->
    <g transform="translate(724.846755 409.046375)scale(0.1 -0.1)">
     <use xlink:href="#DejaVuSans-32"/>
     <use xlink:href="#DejaVuSans-35" x="63.623047"/>
    </g>
   </g>
  </g>
  <g id="text_28">
   <!-- Top 10 Countries Where Famous Musicians Are Coming From -->
   <g transform="translate(71.28 25.2)scale(0.15 -0.15)">
    <defs>
     <path id="DejaVuSerif-Bold-54" d="M 1159 0 
L 1159 378 
L 1778 378 
L 1778 4238 
L 500 4238 
L 500 3500 
L 72 3500 
L 72 4666 
L 4697 4666 
L 4697 3500 
L 4275 3500 
L 4275 4238 
L 2988 4238 
L 2988 378 
L 3609 378 
L 3609 0 
L 1159 0 
z
" transform="scale(0.015625)"/>
     <path id="DejaVuSerif-Bold-6f" d="M 2138 263 
Q 2488 263 2630 563 
Q 2772 863 2772 1663 
Q 2772 2463 2631 2761 
Q 2491 3059 2138 3059 
Q 1784 3059 1640 2757 
Q 1497 2456 1497 1663 
Q 1497 869 1640 566 
Q 1784 263 2138 263 
z
M 2138 -91 
Q 1259 -91 761 376 
Q 263 844 263 1663 
Q 263 2484 761 2948 
Q 1259 3413 2138 3413 
Q 3019 3413 3516 2948 
Q 4013 2484 4013 1663 
Q 4013 844 3514 376 
Q 3016 -91 2138 -91 
z
" transform="scale(0.015625)"/>
     <path id="DejaVuSerif-Bold-70" d="M 1728 1825 
L 1728 1497 
Q 1728 916 1876 656 
Q 2025 397 2356 397 
Q 2697 397 2836 672 
Q 2975 947 2975 1663 
Q 2975 2378 2836 2651 
Q 2697 2925 2356 2925 
Q 2025 2925 1876 2665 
Q 1728 2406 1728 1825 
z
M 622 2944 
L 147 2944 
L 147 3322 
L 1728 3322 
L 1728 2900 
Q 1869 3159 2106 3286 
Q 2344 3413 2694 3413 
Q 3403 3413 3811 2945 
Q 4219 2478 4219 1663 
Q 4219 847 3811 378 
Q 3403 -91 2694 -91 
Q 2344 -91 2106 36 
Q 1869 163 1728 422 
L 1728 -953 
L 2241 -953 
L 2241 -1331 
L 147 -1331 
L 147 -953 
L 622 -953 
L 622 2944 
z
" transform="scale(0.015625)"/>
     <path id="DejaVuSerif-Bold-20" transform="scale(0.015625)"/>
     <path id="DejaVuSerif-Bold-31" d="M 878 0 
L 878 378 
L 1753 378 
L 1753 4153 
L 781 3578 
L 781 4044 
L 1953 4750 
L 2938 4750 
L 2938 378 
L 3816 378 
L 3816 0 
L 878 0 
z
" transform="scale(0.015625)"/>
     <path id="DejaVuSerif-Bold-30" d="M 2228 275 
Q 2603 275 2742 615 
Q 2881 956 2881 2328 
Q 2881 3691 2742 4037 
Q 2603 4384 2228 4384 
Q 1853 4384 1714 4043 
Q 1575 3703 1575 2328 
Q 1575 956 1714 615 
Q 1853 275 2228 275 
z
M 2228 -91 
Q 1294 -91 797 532 
Q 300 1156 300 2328 
Q 300 3500 797 4125 
Q 1294 4750 2228 4750 
Q 3159 4750 3656 4125 
Q 4153 3500 4153 2328 
Q 4153 1156 3656 532 
Q 3159 -91 2228 -91 
z
" transform="scale(0.015625)"/>
     <path id="DejaVuSerif-Bold-43" d="M 4769 1331 
Q 4584 609 4106 259 
Q 3628 -91 2822 -91 
Q 1641 -91 955 561 
Q 269 1213 269 2328 
Q 269 3447 955 4098 
Q 1641 4750 2822 4750 
Q 3238 4750 3688 4650 
Q 4138 4550 4641 4347 
L 4641 3200 
L 4244 3200 
Q 4122 3788 3800 4080 
Q 3478 4372 2950 4372 
Q 2269 4372 1937 3870 
Q 1606 3369 1606 2328 
Q 1606 1288 1937 788 
Q 2269 288 2956 288 
Q 3422 288 3717 547 
Q 4013 806 4147 1331 
L 4769 1331 
z
" transform="scale(0.015625)"/>
     <path id="DejaVuSerif-Bold-75" d="M 3963 3322 
L 3963 378 
L 4434 378 
L 4434 0 
L 2853 0 
L 2853 469 
Q 2656 172 2400 40 
Q 2144 -91 1753 -91 
Q 1194 -91 908 239 
Q 622 569 622 1209 
L 622 2944 
L 147 2944 
L 147 3322 
L 1728 3322 
L 1728 1381 
Q 1728 763 1831 595 
Q 1934 428 2209 428 
Q 2544 428 2698 675 
Q 2853 922 2853 1459 
L 2853 2944 
L 2450 2944 
L 2450 3322 
L 3963 3322 
z
" transform="scale(0.015625)"/>
     <path id="DejaVuSerif-Bold-6e" d="M 219 0 
L 219 378 
L 691 378 
L 691 2944 
L 219 2944 
L 219 3322 
L 1797 3322 
L 1797 2853 
Q 1997 3150 2253 3281 
Q 2509 3413 2900 3413 
Q 3459 3413 3745 3083 
Q 4031 2753 4031 2113 
L 4031 378 
L 4506 378 
L 4506 0 
L 2522 0 
L 2522 378 
L 2925 378 
L 2925 2144 
Q 2925 2566 2817 2730 
Q 2709 2894 2444 2894 
Q 2109 2894 1953 2648 
Q 1797 2403 1797 1869 
L 1797 378 
L 2203 378 
L 2203 0 
L 219 0 
z
" transform="scale(0.015625)"/>
     <path id="DejaVuSerif-Bold-74" d="M 634 2944 
L 153 2944 
L 153 3322 
L 634 3322 
L 634 4353 
L 1741 4353 
L 1741 3322 
L 2663 3322 
L 2663 2944 
L 1741 2944 
L 1741 909 
Q 1741 475 1809 369 
Q 1878 263 2059 263 
Q 2259 263 2356 397 
Q 2453 531 2459 813 
L 2925 813 
Q 2897 313 2651 111 
Q 2406 -91 1806 -91 
Q 1122 -91 878 123 
Q 634 338 634 909 
L 634 2944 
z
" transform="scale(0.015625)"/>
     <path id="DejaVuSerif-Bold-72" d="M 3438 3359 
L 3438 2369 
L 3084 2369 
Q 3066 2634 2941 2764 
Q 2816 2894 2578 2894 
Q 2216 2894 2006 2575 
Q 1797 2256 1797 1691 
L 1797 378 
L 2400 378 
L 2400 0 
L 219 0 
L 219 378 
L 691 378 
L 691 2944 
L 184 2944 
L 184 3322 
L 1797 3322 
L 1797 2731 
Q 1959 3078 2226 3245 
Q 2494 3413 2881 3413 
Q 2978 3413 3117 3398 
Q 3256 3384 3438 3359 
z
" transform="scale(0.015625)"/>
     <path id="DejaVuSerif-Bold-69" d="M 588 4263 
Q 588 4516 763 4689 
Q 938 4863 1191 4863 
Q 1438 4863 1611 4689 
Q 1784 4516 1784 4263 
Q 1784 4016 1611 3842 
Q 1438 3669 1191 3669 
Q 938 3669 763 3841 
Q 588 4013 588 4263 
z
M 1797 378 
L 2272 378 
L 2272 0 
L 219 0 
L 219 378 
L 691 378 
L 691 2944 
L 219 2944 
L 219 3322 
L 1797 3322 
L 1797 378 
z
" transform="scale(0.015625)"/>
     <path id="DejaVuSerif-Bold-65" d="M 2566 1875 
Q 2566 2531 2444 2795 
Q 2322 3059 2028 3059 
Q 1744 3059 1620 2800 
Q 1497 2541 1497 1931 
L 1497 1875 
L 2566 1875 
z
M 3781 1503 
L 1497 1503 
L 1497 1478 
Q 1497 834 1690 548 
Q 1884 263 2316 263 
Q 2675 263 2897 453 
Q 3119 644 3181 1006 
L 3700 1006 
Q 3566 441 3166 175 
Q 2766 -91 2047 -91 
Q 1184 -91 723 364 
Q 263 819 263 1663 
Q 263 2488 734 2950 
Q 1206 3413 2047 3413 
Q 2872 3413 3312 2927 
Q 3753 2441 3781 1503 
z
" transform="scale(0.015625)"/>
     <path id="DejaVuSerif-Bold-73" d="M 300 97 
L 300 1025 
L 653 1025 
Q 697 653 931 458 
Q 1166 263 1569 263 
Q 1906 263 2086 380 
Q 2266 497 2266 716 
Q 2266 916 2152 1025 
Q 2038 1134 1709 1216 
L 1253 1331 
Q 738 1459 506 1698 
Q 275 1938 275 2344 
Q 275 2884 650 3148 
Q 1025 3413 1806 3413 
Q 2100 3413 2433 3364 
Q 2766 3316 3169 3213 
L 3169 2375 
L 2816 2375 
Q 2788 2716 2573 2887 
Q 2359 3059 1959 3059 
Q 1622 3059 1448 2951 
Q 1275 2844 1275 2638 
Q 1275 2469 1375 2372 
Q 1475 2275 1734 2209 
L 2188 2094 
Q 2841 1928 3091 1684 
Q 3341 1441 3341 1006 
Q 3341 444 2939 176 
Q 2538 -91 1691 -91 
Q 1381 -91 1034 -44 
Q 688 3 300 97 
z
" transform="scale(0.015625)"/>
     <path id="DejaVuSerif-Bold-57" d="M 5453 0 
L 4647 0 
L 3591 3397 
L 2534 0 
L 1728 0 
L 397 4288 
L -56 4288 
L -56 4666 
L 2156 4666 
L 2156 4288 
L 1656 4288 
L 2547 1422 
L 3553 4666 
L 4441 4666 
L 5466 1369 
L 6375 4288 
L 5819 4288 
L 5819 4666 
L 7263 4666 
L 7263 4288 
L 6784 4288 
L 5453 0 
z
" transform="scale(0.015625)"/>
     <path id="DejaVuSerif-Bold-68" d="M 219 0 
L 219 378 
L 691 378 
L 691 4488 
L 197 4488 
L 197 4863 
L 1797 4863 
L 1797 2853 
Q 1997 3150 2253 3281 
Q 2509 3413 2900 3413 
Q 3459 3413 3745 3083 
Q 4031 2753 4031 2113 
L 4031 378 
L 4506 378 
L 4506 0 
L 2522 0 
L 2522 378 
L 2925 378 
L 2925 2144 
Q 2925 2566 2817 2730 
Q 2709 2894 2444 2894 
Q 2109 2894 1953 2648 
Q 1797 2403 1797 1869 
L 1797 378 
L 2203 378 
L 2203 0 
L 219 0 
z
" transform="scale(0.015625)"/>
     <path id="DejaVuSerif-Bold-46" d="M 300 0 
L 300 378 
L 897 378 
L 897 4288 
L 300 4288 
L 300 4666 
L 4459 4666 
L 4459 3566 
L 4031 3566 
L 4031 4238 
L 2106 4238 
L 2106 2741 
L 3291 2741 
L 3291 3334 
L 3719 3334 
L 3719 1722 
L 3291 1722 
L 3291 2316 
L 2106 2316 
L 2106 378 
L 2841 378 
L 2841 0 
L 300 0 
z
" transform="scale(0.015625)"/>
     <path id="DejaVuSerif-Bold-61" d="M 3525 2041 
L 3525 378 
L 4000 378 
L 4000 0 
L 2419 0 
L 2419 422 
Q 2200 159 1931 34 
Q 1663 -91 1319 -91 
Q 809 -91 536 182 
Q 263 456 263 966 
Q 263 1525 655 1803 
Q 1047 2081 1838 2081 
L 2419 2081 
L 2419 2278 
Q 2419 2681 2228 2873 
Q 2038 3066 1638 3066 
Q 1306 3066 1126 2930 
Q 947 2794 872 2484 
L 519 2484 
L 519 3200 
Q 816 3306 1134 3359 
Q 1453 3413 1806 3413 
Q 2697 3413 3111 3081 
Q 3525 2750 3525 2041 
z
M 2419 1044 
L 2419 1709 
L 2003 1709 
Q 1694 1709 1528 1540 
Q 1363 1372 1363 1056 
Q 1363 741 1483 584 
Q 1603 428 1850 428 
Q 2106 428 2262 597 
Q 2419 766 2419 1044 
z
" transform="scale(0.015625)"/>
     <path id="DejaVuSerif-Bold-6d" d="M 3884 2778 
Q 4116 3109 4384 3261 
Q 4653 3413 5013 3413 
Q 5584 3413 5867 3089 
Q 6150 2766 6150 2113 
L 6150 378 
L 6625 378 
L 6625 0 
L 4647 0 
L 4647 378 
L 5044 378 
L 5044 1947 
Q 5044 2569 4948 2731 
Q 4853 2894 4594 2894 
Q 4300 2894 4137 2667 
Q 3975 2441 3975 2022 
L 3975 378 
L 4372 378 
L 4372 0 
L 2472 0 
L 2472 378 
L 2869 378 
L 2869 1947 
Q 2869 2569 2772 2731 
Q 2675 2894 2419 2894 
Q 2122 2894 1959 2667 
Q 1797 2441 1797 2022 
L 1797 378 
L 2194 378 
L 2194 0 
L 219 0 
L 219 378 
L 691 378 
L 691 2944 
L 219 2944 
L 219 3322 
L 1797 3322 
L 1797 2853 
Q 1991 3144 2241 3278 
Q 2491 3413 2834 3413 
Q 3241 3413 3494 3258 
Q 3747 3103 3884 2778 
z
" transform="scale(0.015625)"/>
     <path id="DejaVuSerif-Bold-4d" d="M 269 0 
L 269 378 
L 863 378 
L 863 4288 
L 269 4288 
L 269 4666 
L 2194 4666 
L 3525 1672 
L 4863 4666 
L 6784 4666 
L 6784 4288 
L 6188 4288 
L 6188 378 
L 6784 378 
L 6784 0 
L 4384 0 
L 4384 378 
L 4978 378 
L 4978 3938 
L 3531 684 
L 2741 684 
L 1300 3938 
L 1300 378 
L 1894 378 
L 1894 0 
L 269 0 
z
" transform="scale(0.015625)"/>
     <path id="DejaVuSerif-Bold-63" d="M 3609 1038 
Q 3491 469 3123 189 
Q 2756 -91 2125 -91 
Q 1238 -91 750 368 
Q 263 828 263 1663 
Q 263 2488 744 2950 
Q 1225 3413 2081 3413 
Q 2428 3413 2781 3347 
Q 3134 3281 3500 3150 
L 3500 2228 
L 3150 2228 
Q 3100 2650 2903 2854 
Q 2706 3059 2350 3059 
Q 1888 3059 1692 2746 
Q 1497 2434 1497 1663 
Q 1497 909 1687 586 
Q 1878 263 2309 263 
Q 2644 263 2845 463 
Q 3047 663 3091 1038 
L 3609 1038 
z
" transform="scale(0.015625)"/>
     <path id="DejaVuSerif-Bold-41" d="M -50 0 
L -50 378 
L 331 378 
L 2088 4666 
L 2834 4666 
L 4594 378 
L 5038 378 
L 5038 0 
L 2853 0 
L 2853 378 
L 3309 378 
L 2925 1331 
L 1172 1331 
L 781 378 
L 1338 378 
L 1338 0 
L -50 0 
z
M 1325 1709 
L 2772 1709 
L 2053 3494 
L 1325 1709 
z
" transform="scale(0.015625)"/>
     <path id="DejaVuSerif-Bold-67" d="M 3853 2944 
L 3853 44 
Q 3853 -656 3354 -1039 
Q 2856 -1422 1947 -1422 
Q 1616 -1422 1275 -1370 
Q 934 -1319 575 -1216 
L 575 -422 
L 928 -422 
Q 975 -750 1192 -909 
Q 1409 -1069 1813 -1069 
Q 2325 -1069 2536 -823 
Q 2747 -578 2747 44 
L 2747 422 
Q 2606 163 2367 36 
Q 2128 -91 1778 -91 
Q 1072 -91 667 378 
Q 263 847 263 1663 
Q 263 2481 667 2947 
Q 1072 3413 1778 3413 
Q 2128 3413 2367 3286 
Q 2606 3159 2747 2900 
L 2747 3322 
L 4325 3322 
L 4325 2944 
L 3853 2944 
z
M 2747 1825 
Q 2747 2406 2597 2665 
Q 2447 2925 2119 2925 
Q 1775 2925 1636 2651 
Q 1497 2378 1497 1663 
Q 1497 947 1637 672 
Q 1778 397 2119 397 
Q 2447 397 2597 656 
Q 2747 916 2747 1497 
L 2747 1825 
z
" transform="scale(0.015625)"/>
    </defs>
    <use xlink:href="#DejaVuSerif-Bold-54"/>
    <use xlink:href="#DejaVuSerif-Bold-6f" x="62.914062"/>
    <use xlink:href="#DejaVuSerif-Bold-70" x="129.613281"/>
    <use xlink:href="#DejaVuSerif-Bold-20" x="199.535156"/>
    <use xlink:href="#DejaVuSerif-Bold-31" x="234.349609"/>
    <use xlink:href="#DejaVuSerif-Bold-30" x="303.929688"/>
    <use xlink:href="#DejaVuSerif-Bold-20" x="373.509766"/>
    <use xlink:href="#DejaVuSerif-Bold-43" x="408.324219"/>
    <use xlink:href="#DejaVuSerif-Bold-6f" x="487.914062"/>
    <use xlink:href="#DejaVuSerif-Bold-75" x="554.613281"/>
    <use xlink:href="#DejaVuSerif-Bold-6e" x="627.318359"/>
    <use xlink:href="#DejaVuSerif-Bold-74" x="700.023438"/>
    <use xlink:href="#DejaVuSerif-Bold-72" x="746.214844"/>
    <use xlink:href="#DejaVuSerif-Bold-69" x="798.900391"/>
    <use xlink:href="#DejaVuSerif-Bold-65" x="836.888672"/>
    <use xlink:href="#DejaVuSerif-Bold-73" x="900.511719"/>
    <use xlink:href="#DejaVuSerif-Bold-20" x="956.810547"/>
    <use xlink:href="#DejaVuSerif-Bold-57" x="991.625"/>
    <use xlink:href="#DejaVuSerif-Bold-68" x="1103.929688"/>
    <use xlink:href="#DejaVuSerif-Bold-65" x="1176.634766"/>
    <use xlink:href="#DejaVuSerif-Bold-72" x="1240.257812"/>
    <use xlink:href="#DejaVuSerif-Bold-65" x="1292.943359"/>
    <use xlink:href="#DejaVuSerif-Bold-20" x="1356.566406"/>
    <use xlink:href="#DejaVuSerif-Bold-46" x="1391.380859"/>
    <use xlink:href="#DejaVuSerif-Bold-61" x="1456.876953"/>
    <use xlink:href="#DejaVuSerif-Bold-6d" x="1521.671875"/>
    <use xlink:href="#DejaVuSerif-Bold-6f" x="1627.482422"/>
    <use xlink:href="#DejaVuSerif-Bold-75" x="1694.181641"/>
    <use xlink:href="#DejaVuSerif-Bold-73" x="1766.886719"/>
    <use xlink:href="#DejaVuSerif-Bold-20" x="1823.185547"/>
    <use xlink:href="#DejaVuSerif-Bold-4d" x="1858"/>
    <use xlink:href="#DejaVuSerif-Bold-75" x="1968.693359"/>
    <use xlink:href="#DejaVuSerif-Bold-73" x="2041.398438"/>
    <use xlink:href="#DejaVuSerif-Bold-69" x="2097.697266"/>
    <use xlink:href="#DejaVuSerif-Bold-63" x="2135.685547"/>
    <use xlink:href="#DejaVuSerif-Bold-69" x="2196.574219"/>
    <use xlink:href="#DejaVuSerif-Bold-61" x="2234.5625"/>
    <use xlink:href="#DejaVuSerif-Bold-6e" x="2299.357422"/>
    <use xlink:href="#DejaVuSerif-Bold-73" x="2372.0625"/>
    <use xlink:href="#DejaVuSerif-Bold-20" x="2428.361328"/>
    <use xlink:href="#DejaVuSerif-Bold-41" x="2463.175781"/>
    <use xlink:href="#DejaVuSerif-Bold-72" x="2540.763672"/>
    <use xlink:href="#DejaVuSerif-Bold-65" x="2593.449219"/>
    <use xlink:href="#DejaVuSerif-Bold-20" x="2657.072266"/>
    <use xlink:href="#DejaVuSerif-Bold-43" x="2691.886719"/>
    <use xlink:href="#DejaVuSerif-Bold-6f" x="2771.476562"/>
    <use xlink:href="#DejaVuSerif-Bold-6d" x="2838.175781"/>
    <use xlink:href="#DejaVuSerif-Bold-69" x="2943.986328"/>
    <use xlink:href="#DejaVuSerif-Bold-6e" x="2981.974609"/>
    <use xlink:href="#DejaVuSerif-Bold-67" x="3054.679688"/>
    <use xlink:href="#DejaVuSerif-Bold-20" x="3124.601562"/>
    <use xlink:href="#DejaVuSerif-Bold-46" x="3159.416016"/>
    <use xlink:href="#DejaVuSerif-Bold-72" x="3228.662109"/>
    <use xlink:href="#DejaVuSerif-Bold-6f" x="3281.347656"/>
    <use xlink:href="#DejaVuSerif-Bold-6d" x="3348.046875"/>
   </g>
  </g>
  <g id="text_29">
   <!-- The three most dominant countries highlighted are: United States of America, Great Britain, and Jamaika. -->
   <g transform="translate(71.28 45.36)scale(0.12 -0.12)">
    <defs>
     <path id="DejaVuSerif-54" d="M 1222 0 
L 1222 331 
L 1819 331 
L 1819 4294 
L 447 4294 
L 447 3566 
L 63 3566 
L 63 4666 
L 4206 4666 
L 4206 3566 
L 3822 3566 
L 3822 4294 
L 2450 4294 
L 2450 331 
L 3047 331 
L 3047 0 
L 1222 0 
z
" transform="scale(0.015625)"/>
     <path id="DejaVuSerif-68" d="M 263 0 
L 263 331 
L 781 331 
L 781 4531 
L 231 4531 
L 231 4863 
L 1356 4863 
L 1356 2731 
Q 1516 3069 1770 3241 
Q 2025 3413 2363 3413 
Q 2913 3413 3172 3097 
Q 3431 2781 3431 2113 
L 3431 331 
L 3944 331 
L 3944 0 
L 2356 0 
L 2356 331 
L 2853 331 
L 2853 1931 
Q 2853 2541 2704 2764 
Q 2556 2988 2175 2988 
Q 1775 2988 1565 2697 
Q 1356 2406 1356 1850 
L 1356 331 
L 1856 331 
L 1856 0 
L 263 0 
z
" transform="scale(0.015625)"/>
     <path id="DejaVuSerif-65" d="M 3469 1600 
L 991 1600 
L 991 1575 
Q 991 903 1244 561 
Q 1497 219 1991 219 
Q 2369 219 2611 417 
Q 2853 616 2950 1006 
L 3413 1006 
Q 3275 459 2904 184 
Q 2534 -91 1931 -91 
Q 1203 -91 761 389 
Q 319 869 319 1663 
Q 319 2450 753 2931 
Q 1188 3413 1894 3413 
Q 2647 3413 3050 2948 
Q 3453 2484 3469 1600 
z
M 2791 1931 
Q 2772 2513 2545 2808 
Q 2319 3103 1894 3103 
Q 1497 3103 1269 2806 
Q 1041 2509 991 1931 
L 2791 1931 
z
" transform="scale(0.015625)"/>
     <path id="DejaVuSerif-20" transform="scale(0.015625)"/>
     <path id="DejaVuSerif-74" d="M 691 2988 
L 184 2988 
L 184 3322 
L 691 3322 
L 691 4353 
L 1269 4353 
L 1269 3322 
L 2350 3322 
L 2350 2988 
L 1269 2988 
L 1269 878 
Q 1269 456 1350 337 
Q 1431 219 1650 219 
Q 1875 219 1978 351 
Q 2081 484 2088 781 
L 2522 781 
Q 2497 328 2275 118 
Q 2053 -91 1600 -91 
Q 1103 -91 897 129 
Q 691 350 691 878 
L 691 2988 
z
" transform="scale(0.015625)"/>
     <path id="DejaVuSerif-72" d="M 3059 3328 
L 3059 2497 
L 2728 2497 
Q 2713 2744 2591 2866 
Q 2469 2988 2234 2988 
Q 1809 2988 1582 2694 
Q 1356 2400 1356 1850 
L 1356 331 
L 2022 331 
L 2022 0 
L 263 0 
L 263 331 
L 781 331 
L 781 2994 
L 231 2994 
L 231 3322 
L 1356 3322 
L 1356 2731 
Q 1525 3078 1790 3245 
Q 2056 3413 2438 3413 
Q 2578 3413 2733 3391 
Q 2888 3369 3059 3328 
z
" transform="scale(0.015625)"/>
     <path id="DejaVuSerif-6d" d="M 3316 2675 
Q 3481 3041 3739 3227 
Q 3997 3413 4341 3413 
Q 4863 3413 5119 3089 
Q 5375 2766 5375 2113 
L 5375 331 
L 5894 331 
L 5894 0 
L 4300 0 
L 4300 331 
L 4800 331 
L 4800 2047 
Q 4800 2556 4650 2772 
Q 4500 2988 4153 2988 
Q 3769 2988 3567 2697 
Q 3366 2406 3366 1850 
L 3366 331 
L 3866 331 
L 3866 0 
L 2291 0 
L 2291 331 
L 2791 331 
L 2791 2069 
Q 2791 2566 2641 2777 
Q 2491 2988 2144 2988 
Q 1759 2988 1557 2697 
Q 1356 2406 1356 1850 
L 1356 331 
L 1856 331 
L 1856 0 
L 263 0 
L 263 331 
L 781 331 
L 781 2994 
L 231 2994 
L 231 3322 
L 1356 3322 
L 1356 2731 
Q 1516 3063 1762 3238 
Q 2009 3413 2322 3413 
Q 2709 3413 2968 3220 
Q 3228 3028 3316 2675 
z
" transform="scale(0.015625)"/>
     <path id="DejaVuSerif-6f" d="M 1925 219 
Q 2388 219 2623 584 
Q 2859 950 2859 1663 
Q 2859 2375 2623 2739 
Q 2388 3103 1925 3103 
Q 1463 3103 1227 2739 
Q 991 2375 991 1663 
Q 991 950 1228 584 
Q 1466 219 1925 219 
z
M 1925 -91 
Q 1200 -91 759 389 
Q 319 869 319 1663 
Q 319 2456 758 2934 
Q 1197 3413 1925 3413 
Q 2653 3413 3092 2934 
Q 3531 2456 3531 1663 
Q 3531 869 3092 389 
Q 2653 -91 1925 -91 
z
" transform="scale(0.015625)"/>
     <path id="DejaVuSerif-73" d="M 359 184 
L 359 959 
L 691 959 
Q 703 588 923 403 
Q 1144 219 1575 219 
Q 1963 219 2166 364 
Q 2369 509 2369 788 
Q 2369 1006 2220 1140 
Q 2072 1275 1594 1428 
L 1178 1569 
Q 750 1706 558 1912 
Q 366 2119 366 2438 
Q 366 2894 700 3153 
Q 1034 3413 1625 3413 
Q 1888 3413 2178 3344 
Q 2469 3275 2778 3144 
L 2778 2419 
L 2447 2419 
Q 2434 2741 2221 2922 
Q 2009 3103 1644 3103 
Q 1281 3103 1095 2975 
Q 909 2847 909 2591 
Q 909 2381 1050 2254 
Q 1191 2128 1613 1997 
L 2069 1856 
Q 2541 1709 2748 1489 
Q 2956 1269 2956 922 
Q 2956 450 2595 179 
Q 2234 -91 1600 -91 
Q 1278 -91 972 -22 
Q 666 47 359 184 
z
" transform="scale(0.015625)"/>
     <path id="DejaVuSerif-64" d="M 3359 331 
L 3909 331 
L 3909 0 
L 2784 0 
L 2784 519 
Q 2616 206 2355 57 
Q 2094 -91 1709 -91 
Q 1097 -91 708 395 
Q 319 881 319 1663 
Q 319 2444 706 2928 
Q 1094 3413 1709 3413 
Q 2094 3413 2355 3264 
Q 2616 3116 2784 2803 
L 2784 4531 
L 2241 4531 
L 2241 4863 
L 3359 4863 
L 3359 331 
z
M 2784 1497 
L 2784 1825 
Q 2784 2422 2554 2737 
Q 2325 3053 1888 3053 
Q 1444 3053 1217 2703 
Q 991 2353 991 1663 
Q 991 975 1217 622 
Q 1444 269 1888 269 
Q 2325 269 2554 583 
Q 2784 897 2784 1497 
z
" transform="scale(0.015625)"/>
     <path id="DejaVuSerif-69" d="M 622 4353 
Q 622 4497 726 4603 
Q 831 4709 978 4709 
Q 1122 4709 1226 4603 
Q 1331 4497 1331 4353 
Q 1331 4206 1228 4103 
Q 1125 4000 978 4000 
Q 831 4000 726 4103 
Q 622 4206 622 4353 
z
M 1356 331 
L 1900 331 
L 1900 0 
L 231 0 
L 231 331 
L 781 331 
L 781 2988 
L 231 2988 
L 231 3322 
L 1356 3322 
L 1356 331 
z
" transform="scale(0.015625)"/>
     <path id="DejaVuSerif-6e" d="M 263 0 
L 263 331 
L 781 331 
L 781 2988 
L 231 2988 
L 231 3322 
L 1356 3322 
L 1356 2731 
Q 1516 3069 1770 3241 
Q 2025 3413 2363 3413 
Q 2913 3413 3172 3097 
Q 3431 2781 3431 2113 
L 3431 331 
L 3944 331 
L 3944 0 
L 2356 0 
L 2356 331 
L 2853 331 
L 2853 1931 
Q 2853 2541 2703 2767 
Q 2553 2994 2175 2994 
Q 1775 2994 1565 2701 
Q 1356 2409 1356 1850 
L 1356 331 
L 1856 331 
L 1856 0 
L 263 0 
z
" transform="scale(0.015625)"/>
     <path id="DejaVuSerif-61" d="M 2547 1044 
L 2547 1747 
L 1806 1747 
Q 1378 1747 1168 1562 
Q 959 1378 959 997 
Q 959 650 1171 447 
Q 1384 244 1747 244 
Q 2106 244 2326 466 
Q 2547 688 2547 1044 
z
M 3122 2075 
L 3122 331 
L 3634 331 
L 3634 0 
L 2547 0 
L 2547 359 
Q 2356 128 2106 18 
Q 1856 -91 1522 -91 
Q 969 -91 644 203 
Q 319 497 319 997 
Q 319 1513 691 1797 
Q 1063 2081 1741 2081 
L 2547 2081 
L 2547 2309 
Q 2547 2688 2317 2895 
Q 2088 3103 1672 3103 
Q 1328 3103 1125 2947 
Q 922 2791 872 2484 
L 575 2484 
L 575 3156 
Q 875 3284 1158 3348 
Q 1441 3413 1709 3413 
Q 2400 3413 2761 3070 
Q 3122 2728 3122 2075 
z
" transform="scale(0.015625)"/>
     <path id="DejaVuSerif-63" d="M 3291 997 
Q 3169 466 2822 187 
Q 2475 -91 1925 -91 
Q 1200 -91 759 389 
Q 319 869 319 1663 
Q 319 2459 759 2936 
Q 1200 3413 1925 3413 
Q 2241 3413 2553 3339 
Q 2866 3266 3181 3116 
L 3181 2266 
L 2847 2266 
Q 2781 2703 2561 2903 
Q 2341 3103 1931 3103 
Q 1466 3103 1228 2742 
Q 991 2381 991 1663 
Q 991 944 1227 581 
Q 1463 219 1931 219 
Q 2303 219 2525 412 
Q 2747 606 2828 997 
L 3291 997 
z
" transform="scale(0.015625)"/>
     <path id="DejaVuSerif-75" d="M 2266 3322 
L 3341 3322 
L 3341 331 
L 3884 331 
L 3884 0 
L 2766 0 
L 2766 588 
Q 2606 256 2353 82 
Q 2100 -91 1766 -91 
Q 1213 -91 952 223 
Q 691 538 691 1209 
L 691 2988 
L 172 2988 
L 172 3322 
L 1269 3322 
L 1269 1388 
Q 1269 781 1417 556 
Q 1566 331 1947 331 
Q 2347 331 2556 625 
Q 2766 919 2766 1478 
L 2766 2988 
L 2266 2988 
L 2266 3322 
z
" transform="scale(0.015625)"/>
     <path id="DejaVuSerif-67" d="M 3359 2988 
L 3359 72 
Q 3359 -644 2965 -1033 
Q 2572 -1422 1844 -1422 
Q 1516 -1422 1216 -1362 
Q 916 -1303 641 -1184 
L 641 -488 
L 941 -488 
Q 997 -813 1206 -963 
Q 1416 -1113 1806 -1113 
Q 2313 -1113 2548 -827 
Q 2784 -541 2784 72 
L 2784 519 
Q 2616 206 2355 57 
Q 2094 -91 1709 -91 
Q 1097 -91 708 395 
Q 319 881 319 1663 
Q 319 2444 706 2928 
Q 1094 3413 1709 3413 
Q 2094 3413 2355 3264 
Q 2616 3116 2784 2803 
L 2784 3322 
L 3909 3322 
L 3909 2988 
L 3359 2988 
z
M 2784 1825 
Q 2784 2422 2554 2737 
Q 2325 3053 1888 3053 
Q 1444 3053 1217 2703 
Q 991 2353 991 1663 
Q 991 975 1217 622 
Q 1444 269 1888 269 
Q 2325 269 2554 583 
Q 2784 897 2784 1497 
L 2784 1825 
z
" transform="scale(0.015625)"/>
     <path id="DejaVuSerif-6c" d="M 1313 331 
L 1856 331 
L 1856 0 
L 184 0 
L 184 331 
L 738 331 
L 738 4531 
L 184 4531 
L 184 4863 
L 1313 4863 
L 1313 331 
z
" transform="scale(0.015625)"/>
     <path id="DejaVuSerif-3a" d="M 666 325 
Q 666 500 786 622 
Q 906 744 1081 744 
Q 1256 744 1376 622 
Q 1497 500 1497 325 
Q 1497 150 1378 29 
Q 1259 -91 1081 -91 
Q 903 -91 784 29 
Q 666 150 666 325 
z
M 666 2363 
Q 666 2538 786 2658 
Q 906 2778 1081 2778 
Q 1259 2778 1378 2659 
Q 1497 2541 1497 2363 
Q 1497 2184 1378 2065 
Q 1259 1947 1081 1947 
Q 906 1947 786 2067 
Q 666 2188 666 2363 
z
" transform="scale(0.015625)"/>
     <path id="DejaVuSerif-55" d="M 897 4331 
L 300 4331 
L 300 4666 
L 2125 4666 
L 2125 4331 
L 1528 4331 
L 1528 1919 
Q 1528 1025 1820 672 
Q 2113 319 2828 319 
Q 3544 319 3836 672 
Q 4128 1025 4128 1919 
L 4128 4331 
L 3531 4331 
L 3531 4666 
L 5106 4666 
L 5106 4331 
L 4513 4331 
L 4513 1856 
Q 4513 791 4103 350 
Q 3694 -91 2713 -91 
Q 1731 -91 1314 353 
Q 897 797 897 1856 
L 897 4331 
z
" transform="scale(0.015625)"/>
     <path id="DejaVuSerif-53" d="M 594 225 
L 594 1288 
L 953 1284 
Q 969 753 1261 498 
Q 1553 244 2150 244 
Q 2706 244 2998 464 
Q 3291 684 3291 1106 
Q 3291 1444 3114 1625 
Q 2938 1806 2369 1978 
L 1753 2163 
Q 1084 2366 811 2669 
Q 538 2972 538 3500 
Q 538 4094 959 4422 
Q 1381 4750 2144 4750 
Q 2469 4750 2856 4679 
Q 3244 4609 3681 4475 
L 3681 3481 
L 3328 3481 
Q 3275 3975 2998 4195 
Q 2722 4416 2156 4416 
Q 1663 4416 1405 4214 
Q 1147 4013 1147 3628 
Q 1147 3294 1340 3103 
Q 1534 2913 2163 2725 
L 2741 2553 
Q 3375 2363 3645 2067 
Q 3916 1772 3916 1275 
Q 3916 597 3481 253 
Q 3047 -91 2188 -91 
Q 1803 -91 1404 -12 
Q 1006 66 594 225 
z
" transform="scale(0.015625)"/>
     <path id="DejaVuSerif-66" d="M 2753 4078 
L 2450 4078 
Q 2447 4313 2317 4434 
Q 2188 4556 1941 4556 
Q 1619 4556 1487 4379 
Q 1356 4203 1356 3750 
L 1356 3322 
L 2284 3322 
L 2284 2988 
L 1356 2988 
L 1356 331 
L 2094 331 
L 2094 0 
L 231 0 
L 231 331 
L 781 331 
L 781 2988 
L 231 2988 
L 231 3322 
L 781 3322 
L 781 3738 
Q 781 4294 1070 4578 
Q 1359 4863 1919 4863 
Q 2128 4863 2337 4825 
Q 2547 4788 2753 4709 
L 2753 4078 
z
" transform="scale(0.015625)"/>
     <path id="DejaVuSerif-41" d="M 1281 1691 
L 2994 1691 
L 2138 3909 
L 1281 1691 
z
M -38 0 
L -38 331 
L 372 331 
L 2034 4666 
L 2559 4666 
L 4225 331 
L 4684 331 
L 4684 0 
L 2988 0 
L 2988 331 
L 3506 331 
L 3116 1356 
L 1153 1356 
L 763 331 
L 1275 331 
L 1275 0 
L -38 0 
z
" transform="scale(0.015625)"/>
     <path id="DejaVuSerif-2c" d="M 231 -622 
Q 525 -406 662 -114 
Q 800 178 800 594 
L 800 709 
L 1416 709 
Q 1391 175 1164 -208 
Q 938 -591 481 -872 
L 231 -622 
z
" transform="scale(0.015625)"/>
     <path id="DejaVuSerif-47" d="M 4097 3272 
Q 3988 3856 3641 4136 
Q 3294 4416 2675 4416 
Q 1869 4416 1472 3897 
Q 1075 3378 1075 2328 
Q 1075 1300 1484 772 
Q 1894 244 2688 244 
Q 3041 244 3362 331 
Q 3684 419 3975 594 
L 3975 1797 
L 3097 1797 
L 3097 2131 
L 4609 2131 
L 4609 391 
Q 4194 150 3714 29 
Q 3234 -91 2688 -91 
Q 1631 -91 995 570 
Q 359 1231 359 2328 
Q 359 3434 996 4092 
Q 1634 4750 2713 4750 
Q 3113 4750 3539 4658 
Q 3966 4566 4447 4378 
L 4447 3272 
L 4097 3272 
z
" transform="scale(0.015625)"/>
     <path id="DejaVuSerif-42" d="M 1581 331 
L 2516 331 
Q 3078 331 3337 575 
Q 3597 819 3597 1350 
Q 3597 1878 3339 2120 
Q 3081 2363 2516 2363 
L 1581 2363 
L 1581 331 
z
M 1581 2694 
L 2375 2694 
Q 2888 2694 3123 2891 
Q 3359 3088 3359 3513 
Q 3359 3941 3123 4136 
Q 2888 4331 2375 4331 
L 1581 4331 
L 1581 2694 
z
M 353 0 
L 353 331 
L 947 331 
L 947 4331 
L 353 4331 
L 353 4666 
L 2656 4666 
Q 3363 4666 3720 4377 
Q 4078 4088 4078 3513 
Q 4078 3097 3829 2850 
Q 3581 2603 3103 2547 
Q 3697 2472 4005 2167 
Q 4313 1863 4313 1350 
Q 4313 656 3875 328 
Q 3438 0 2509 0 
L 353 0 
z
" transform="scale(0.015625)"/>
     <path id="DejaVuSerif-4a" d="M -538 -1119 
L -538 -384 
L -181 -384 
Q -172 -694 -34 -845 
Q 103 -997 378 -997 
Q 750 -997 897 -762 
Q 1044 -528 1044 153 
L 1044 4331 
L 319 4331 
L 319 4666 
L 2272 4666 
L 2272 4331 
L 1678 4331 
L 1678 128 
Q 1678 -644 1368 -987 
Q 1059 -1331 372 -1331 
Q 150 -1331 -79 -1278 
Q -309 -1225 -538 -1119 
z
" transform="scale(0.015625)"/>
     <path id="DejaVuSerif-6b" d="M 1831 0 
L 219 0 
L 219 331 
L 738 331 
L 738 4531 
L 184 4531 
L 184 4863 
L 1313 4863 
L 1313 1697 
L 2713 2988 
L 2234 2988 
L 2234 3322 
L 3738 3322 
L 3738 2988 
L 3169 2988 
L 2181 2075 
L 3444 331 
L 3922 331 
L 3922 0 
L 2284 0 
L 2284 331 
L 2759 331 
L 1766 1697 
L 1313 1275 
L 1313 331 
L 1831 331 
L 1831 0 
z
" transform="scale(0.015625)"/>
     <path id="DejaVuSerif-2e" d="M 603 325 
Q 603 500 722 622 
Q 841 744 1019 744 
Q 1191 744 1312 622 
Q 1434 500 1434 325 
Q 1434 153 1312 31 
Q 1191 -91 1019 -91 
Q 841 -91 722 29 
Q 603 150 603 325 
z
" transform="scale(0.015625)"/>
    </defs>
    <use xlink:href="#DejaVuSerif-54"/>
    <use xlink:href="#DejaVuSerif-68" x="66.699219"/>
    <use xlink:href="#DejaVuSerif-65" x="131.103516"/>
    <use xlink:href="#DejaVuSerif-20" x="190.283203"/>
    <use xlink:href="#DejaVuSerif-74" x="222.070312"/>
    <use xlink:href="#DejaVuSerif-68" x="262.255859"/>
    <use xlink:href="#DejaVuSerif-72" x="326.660156"/>
    <use xlink:href="#DejaVuSerif-65" x="374.462891"/>
    <use xlink:href="#DejaVuSerif-65" x="433.642578"/>
    <use xlink:href="#DejaVuSerif-20" x="492.822266"/>
    <use xlink:href="#DejaVuSerif-6d" x="524.609375"/>
    <use xlink:href="#DejaVuSerif-6f" x="619.433594"/>
    <use xlink:href="#DejaVuSerif-73" x="679.638672"/>
    <use xlink:href="#DejaVuSerif-74" x="730.957031"/>
    <use xlink:href="#DejaVuSerif-20" x="771.142578"/>
    <use xlink:href="#DejaVuSerif-64" x="802.929688"/>
    <use xlink:href="#DejaVuSerif-6f" x="866.943359"/>
    <use xlink:href="#DejaVuSerif-6d" x="927.148438"/>
    <use xlink:href="#DejaVuSerif-69" x="1021.972656"/>
    <use xlink:href="#DejaVuSerif-6e" x="1053.955078"/>
    <use xlink:href="#DejaVuSerif-61" x="1118.359375"/>
    <use xlink:href="#DejaVuSerif-6e" x="1177.978516"/>
    <use xlink:href="#DejaVuSerif-74" x="1242.382812"/>
    <use xlink:href="#DejaVuSerif-20" x="1282.568359"/>
    <use xlink:href="#DejaVuSerif-63" x="1314.355469"/>
    <use xlink:href="#DejaVuSerif-6f" x="1370.361328"/>
    <use xlink:href="#DejaVuSerif-75" x="1430.566406"/>
    <use xlink:href="#DejaVuSerif-6e" x="1494.970703"/>
    <use xlink:href="#DejaVuSerif-74" x="1559.375"/>
    <use xlink:href="#DejaVuSerif-72" x="1599.560547"/>
    <use xlink:href="#DejaVuSerif-69" x="1647.363281"/>
    <use xlink:href="#DejaVuSerif-65" x="1679.345703"/>
    <use xlink:href="#DejaVuSerif-73" x="1738.525391"/>
    <use xlink:href="#DejaVuSerif-20" x="1789.84375"/>
    <use xlink:href="#DejaVuSerif-68" x="1821.630859"/>
    <use xlink:href="#DejaVuSerif-69" x="1886.035156"/>
    <use xlink:href="#DejaVuSerif-67" x="1918.017578"/>
    <use xlink:href="#DejaVuSerif-68" x="1982.03125"/>
    <use xlink:href="#DejaVuSerif-6c" x="2046.435547"/>
    <use xlink:href="#DejaVuSerif-69" x="2078.417969"/>
    <use xlink:href="#DejaVuSerif-67" x="2110.400391"/>
    <use xlink:href="#DejaVuSerif-68" x="2174.414062"/>
    <use xlink:href="#DejaVuSerif-74" x="2238.818359"/>
    <use xlink:href="#DejaVuSerif-65" x="2279.003906"/>
    <use xlink:href="#DejaVuSerif-64" x="2338.183594"/>
    <use xlink:href="#DejaVuSerif-20" x="2402.197266"/>
    <use xlink:href="#DejaVuSerif-61" x="2433.984375"/>
    <use xlink:href="#DejaVuSerif-72" x="2493.603516"/>
    <use xlink:href="#DejaVuSerif-65" x="2541.40625"/>
    <use xlink:href="#DejaVuSerif-3a" x="2600.585938"/>
    <use xlink:href="#DejaVuSerif-20" x="2634.277344"/>
    <use xlink:href="#DejaVuSerif-55" x="2666.064453"/>
    <use xlink:href="#DejaVuSerif-6e" x="2750.341797"/>
    <use xlink:href="#DejaVuSerif-69" x="2814.746094"/>
    <use xlink:href="#DejaVuSerif-74" x="2846.728516"/>
    <use xlink:href="#DejaVuSerif-65" x="2886.914062"/>
    <use xlink:href="#DejaVuSerif-64" x="2946.09375"/>
    <use xlink:href="#DejaVuSerif-20" x="3010.107422"/>
    <use xlink:href="#DejaVuSerif-53" x="3041.894531"/>
    <use xlink:href="#DejaVuSerif-74" x="3110.400391"/>
    <use xlink:href="#DejaVuSerif-61" x="3150.585938"/>
    <use xlink:href="#DejaVuSerif-74" x="3210.205078"/>
    <use xlink:href="#DejaVuSerif-65" x="3250.390625"/>
    <use xlink:href="#DejaVuSerif-73" x="3309.570312"/>
    <use xlink:href="#DejaVuSerif-20" x="3360.888672"/>
    <use xlink:href="#DejaVuSerif-6f" x="3392.675781"/>
    <use xlink:href="#DejaVuSerif-66" x="3452.880859"/>
    <use xlink:href="#DejaVuSerif-20" x="3489.892578"/>
    <use xlink:href="#DejaVuSerif-41" x="3521.679688"/>
    <use xlink:href="#DejaVuSerif-6d" x="3593.896484"/>
    <use xlink:href="#DejaVuSerif-65" x="3688.720703"/>
    <use xlink:href="#DejaVuSerif-72" x="3747.900391"/>
    <use xlink:href="#DejaVuSerif-69" x="3795.703125"/>
    <use xlink:href="#DejaVuSerif-63" x="3827.685547"/>
    <use xlink:href="#DejaVuSerif-61" x="3883.691406"/>
    <use xlink:href="#DejaVuSerif-2c" x="3943.310547"/>
    <use xlink:href="#DejaVuSerif-20" x="3975.097656"/>
    <use xlink:href="#DejaVuSerif-47" x="4006.884766"/>
    <use xlink:href="#DejaVuSerif-72" x="4086.767578"/>
    <use xlink:href="#DejaVuSerif-65" x="4134.570312"/>
    <use xlink:href="#DejaVuSerif-61" x="4193.75"/>
    <use xlink:href="#DejaVuSerif-74" x="4253.369141"/>
    <use xlink:href="#DejaVuSerif-20" x="4293.554688"/>
    <use xlink:href="#DejaVuSerif-42" x="4325.341797"/>
    <use xlink:href="#DejaVuSerif-72" x="4398.828125"/>
    <use xlink:href="#DejaVuSerif-69" x="4446.630859"/>
    <use xlink:href="#DejaVuSerif-74" x="4478.613281"/>
    <use xlink:href="#DejaVuSerif-61" x="4518.798828"/>
    <use xlink:href="#DejaVuSerif-69" x="4578.417969"/>
    <use xlink:href="#DejaVuSerif-6e" x="4610.400391"/>
    <use xlink:href="#DejaVuSerif-2c" x="4674.804688"/>
    <use xlink:href="#DejaVuSerif-20" x="4706.591797"/>
    <use xlink:href="#DejaVuSerif-61" x="4738.378906"/>
    <use xlink:href="#DejaVuSerif-6e" x="4797.998047"/>
    <use xlink:href="#DejaVuSerif-64" x="4862.402344"/>
    <use xlink:href="#DejaVuSerif-20" x="4926.416016"/>
    <use xlink:href="#DejaVuSerif-4a" x="4958.203125"/>
    <use xlink:href="#DejaVuSerif-61" x="4998.291016"/>
    <use xlink:href="#DejaVuSerif-6d" x="5057.910156"/>
    <use xlink:href="#DejaVuSerif-61" x="5152.734375"/>
    <use xlink:href="#DejaVuSerif-69" x="5212.353516"/>
    <use xlink:href="#DejaVuSerif-6b" x="5244.335938"/>
    <use xlink:href="#DejaVuSerif-61" x="5304.931641"/>
    <use xlink:href="#DejaVuSerif-2e" x="5364.550781"/>
   </g>
  </g>
  <g id="text_30">
   <!-- Author: Philipp Ackermann, philipp@metason.net;  Data Source: https://music.metason.net/famousArtists.html -->
   <g style="fill: #434040" transform="translate(158.4 488.88)scale(0.1 -0.1)">
    <defs>
     <path id="DejaVuSans-3a" d="M 750 794 
L 1409 794 
L 1409 0 
L 750 0 
L 750 794 
z
M 750 3309 
L 1409 3309 
L 1409 2516 
L 750 2516 
L 750 3309 
z
" transform="scale(0.015625)"/>
     <path id="DejaVuSans-50" d="M 1259 4147 
L 1259 2394 
L 2053 2394 
Q 2494 2394 2734 2622 
Q 2975 2850 2975 3272 
Q 2975 3691 2734 3919 
Q 2494 4147 2053 4147 
L 1259 4147 
z
M 628 4666 
L 2053 4666 
Q 2838 4666 3239 4311 
Q 3641 3956 3641 3272 
Q 3641 2581 3239 2228 
Q 2838 1875 2053 1875 
L 1259 1875 
L 1259 0 
L 628 0 
L 628 4666 
z
" transform="scale(0.015625)"/>
     <path id="DejaVuSans-6c" d="M 603 4863 
L 1178 4863 
L 1178 0 
L 603 0 
L 603 4863 
z
" transform="scale(0.015625)"/>
     <path id="DejaVuSans-70" d="M 1159 525 
L 1159 -1331 
L 581 -1331 
L 581 3500 
L 1159 3500 
L 1159 2969 
Q 1341 3281 1617 3432 
Q 1894 3584 2278 3584 
Q 2916 3584 3314 3078 
Q 3713 2572 3713 1747 
Q 3713 922 3314 415 
Q 2916 -91 2278 -91 
Q 1894 -91 1617 61 
Q 1341 213 1159 525 
z
M 3116 1747 
Q 3116 2381 2855 2742 
Q 2594 3103 2138 3103 
Q 1681 3103 1420 2742 
Q 1159 2381 1159 1747 
Q 1159 1113 1420 752 
Q 1681 391 2138 391 
Q 2594 391 2855 752 
Q 3116 1113 3116 1747 
z
" transform="scale(0.015625)"/>
     <path id="DejaVuSans-6b" d="M 581 4863 
L 1159 4863 
L 1159 1991 
L 2875 3500 
L 3609 3500 
L 1753 1863 
L 3688 0 
L 2938 0 
L 1159 1709 
L 1159 0 
L 581 0 
L 581 4863 
z
" transform="scale(0.015625)"/>
     <path id="DejaVuSans-2c" d="M 750 794 
L 1409 794 
L 1409 256 
L 897 -744 
L 494 -744 
L 750 256 
L 750 794 
z
" transform="scale(0.015625)"/>
     <path id="DejaVuSans-40" d="M 2381 1678 
Q 2381 1231 2603 976 
Q 2825 722 3213 722 
Q 3597 722 3817 978 
Q 4038 1234 4038 1678 
Q 4038 2116 3813 2373 
Q 3588 2631 3206 2631 
Q 2828 2631 2604 2375 
Q 2381 2119 2381 1678 
z
M 4084 744 
Q 3897 503 3655 389 
Q 3413 275 3091 275 
Q 2553 275 2217 664 
Q 1881 1053 1881 1678 
Q 1881 2303 2218 2693 
Q 2556 3084 3091 3084 
Q 3413 3084 3656 2967 
Q 3900 2850 4084 2613 
L 4084 3022 
L 4531 3022 
L 4531 722 
Q 4988 791 5245 1139 
Q 5503 1488 5503 2041 
Q 5503 2375 5404 2669 
Q 5306 2963 5106 3213 
Q 4781 3622 4314 3839 
Q 3847 4056 3297 4056 
Q 2913 4056 2559 3954 
Q 2206 3853 1906 3653 
Q 1416 3334 1139 2817 
Q 863 2300 863 1697 
Q 863 1200 1042 765 
Q 1222 331 1563 0 
Q 1891 -325 2322 -495 
Q 2753 -666 3244 -666 
Q 3647 -666 4036 -530 
Q 4425 -394 4750 -141 
L 5031 -488 
Q 4641 -791 4180 -952 
Q 3719 -1113 3244 -1113 
Q 2666 -1113 2153 -908 
Q 1641 -703 1241 -313 
Q 841 78 631 592 
Q 422 1106 422 1697 
Q 422 2266 634 2781 
Q 847 3297 1241 3688 
Q 1644 4084 2172 4295 
Q 2700 4506 3291 4506 
Q 3953 4506 4520 4234 
Q 5088 3963 5472 3463 
Q 5706 3156 5829 2797 
Q 5953 2438 5953 2053 
Q 5953 1231 5456 756 
Q 4959 281 4084 263 
L 4084 744 
z
" transform="scale(0.015625)"/>
     <path id="DejaVuSans-2e" d="M 684 794 
L 1344 794 
L 1344 0 
L 684 0 
L 684 794 
z
" transform="scale(0.015625)"/>
     <path id="DejaVuSans-3b" d="M 750 3309 
L 1409 3309 
L 1409 2516 
L 750 2516 
L 750 3309 
z
M 750 794 
L 1409 794 
L 1409 256 
L 897 -744 
L 494 -744 
L 750 256 
L 750 794 
z
" transform="scale(0.015625)"/>
     <path id="DejaVuSans-2f" d="M 1625 4666 
L 2156 4666 
L 531 -594 
L 0 -594 
L 1625 4666 
z
" transform="scale(0.015625)"/>
    </defs>
    <use xlink:href="#DejaVuSans-41"/>
    <use xlink:href="#DejaVuSans-75" x="68.408203"/>
    <use xlink:href="#DejaVuSans-74" x="131.787109"/>
    <use xlink:href="#DejaVuSans-68" x="170.996094"/>
    <use xlink:href="#DejaVuSans-6f" x="234.375"/>
    <use xlink:href="#DejaVuSans-72" x="295.556641"/>
    <use xlink:href="#DejaVuSans-3a" x="334.919922"/>
    <use xlink:href="#DejaVuSans-20" x="368.611328"/>
    <use xlink:href="#DejaVuSans-50" x="400.398438"/>
    <use xlink:href="#DejaVuSans-68" x="460.701172"/>
    <use xlink:href="#DejaVuSans-69" x="524.080078"/>
    <use xlink:href="#DejaVuSans-6c" x="551.863281"/>
    <use xlink:href="#DejaVuSans-69" x="579.646484"/>
    <use xlink:href="#DejaVuSans-70" x="607.429688"/>
    <use xlink:href="#DejaVuSans-70" x="670.90625"/>
    <use xlink:href="#DejaVuSans-20" x="734.382812"/>
    <use xlink:href="#DejaVuSans-41" x="766.169922"/>
    <use xlink:href="#DejaVuSans-63" x="832.828125"/>
    <use xlink:href="#DejaVuSans-6b" x="887.808594"/>
    <use xlink:href="#DejaVuSans-65" x="942.09375"/>
    <use xlink:href="#DejaVuSans-72" x="1003.617188"/>
    <use xlink:href="#DejaVuSans-6d" x="1042.980469"/>
    <use xlink:href="#DejaVuSans-61" x="1140.392578"/>
    <use xlink:href="#DejaVuSans-6e" x="1201.671875"/>
    <use xlink:href="#DejaVuSans-6e" x="1265.050781"/>
    <use xlink:href="#DejaVuSans-2c" x="1328.429688"/>
    <use xlink:href="#DejaVuSans-20" x="1360.216797"/>
    <use xlink:href="#DejaVuSans-70" x="1392.003906"/>
    <use xlink:href="#DejaVuSans-68" x="1455.480469"/>
    <use xlink:href="#DejaVuSans-69" x="1518.859375"/>
    <use xlink:href="#DejaVuSans-6c" x="1546.642578"/>
    <use xlink:href="#DejaVuSans-69" x="1574.425781"/>
    <use xlink:href="#DejaVuSans-70" x="1602.208984"/>
    <use xlink:href="#DejaVuSans-70" x="1665.685547"/>
    <use xlink:href="#DejaVuSans-40" x="1729.162109"/>
    <use xlink:href="#DejaVuSans-6d" x="1829.162109"/>
    <use xlink:href="#DejaVuSans-65" x="1926.574219"/>
    <use xlink:href="#DejaVuSans-74" x="1988.097656"/>
    <use xlink:href="#DejaVuSans-61" x="2027.306641"/>
    <use xlink:href="#DejaVuSans-73" x="2088.585938"/>
    <use xlink:href="#DejaVuSans-6f" x="2140.685547"/>
    <use xlink:href="#DejaVuSans-6e" x="2201.867188"/>
    <use xlink:href="#DejaVuSans-2e" x="2265.246094"/>
    <use xlink:href="#DejaVuSans-6e" x="2297.033203"/>
    <use xlink:href="#DejaVuSans-65" x="2360.412109"/>
    <use xlink:href="#DejaVuSans-74" x="2421.935547"/>
    <use xlink:href="#DejaVuSans-3b" x="2461.144531"/>
    <use xlink:href="#DejaVuSans-20" x="2494.835938"/>
    <use xlink:href="#DejaVuSans-20" x="2526.623047"/>
    <use xlink:href="#DejaVuSans-44" x="2558.410156"/>
    <use xlink:href="#DejaVuSans-61" x="2635.412109"/>
    <use xlink:href="#DejaVuSans-74" x="2696.691406"/>
    <use xlink:href="#DejaVuSans-61" x="2735.900391"/>
    <use xlink:href="#DejaVuSans-20" x="2797.179688"/>
    <use xlink:href="#DejaVuSans-53" x="2828.966797"/>
    <use xlink:href="#DejaVuSans-6f" x="2892.443359"/>
    <use xlink:href="#DejaVuSans-75" x="2953.625"/>
    <use xlink:href="#DejaVuSans-72" x="3017.003906"/>
    <use xlink:href="#DejaVuSans-63" x="3055.867188"/>
    <use xlink:href="#DejaVuSans-65" x="3110.847656"/>
    <use xlink:href="#DejaVuSans-3a" x="3172.371094"/>
    <use xlink:href="#DejaVuSans-20" x="3206.0625"/>
    <use xlink:href="#DejaVuSans-68" x="3237.849609"/>
    <use xlink:href="#DejaVuSans-74" x="3301.228516"/>
    <use xlink:href="#DejaVuSans-74" x="3340.4375"/>
    <use xlink:href="#DejaVuSans-70" x="3379.646484"/>
    <use xlink:href="#DejaVuSans-73" x="3443.123047"/>
    <use xlink:href="#DejaVuSans-3a" x="3495.222656"/>
    <use xlink:href="#DejaVuSans-2f" x="3528.914062"/>
    <use xlink:href="#DejaVuSans-2f" x="3562.605469"/>
    <use xlink:href="#DejaVuSans-6d" x="3596.296875"/>
    <use xlink:href="#DejaVuSans-75" x="3693.708984"/>
    <use xlink:href="#DejaVuSans-73" x="3757.087891"/>
    <use xlink:href="#DejaVuSans-69" x="3809.1875"/>
    <use xlink:href="#DejaVuSans-63" x="3836.970703"/>
    <use xlink:href="#DejaVuSans-2e" x="3891.951172"/>
    <use xlink:href="#DejaVuSans-6d" x="3923.738281"/>
    <use xlink:href="#DejaVuSans-65" x="4021.150391"/>
    <use xlink:href="#DejaVuSans-74" x="4082.673828"/>
    <use xlink:href="#DejaVuSans-61" x="4121.882812"/>
    <use xlink:href="#DejaVuSans-73" x="4183.162109"/>
    <use xlink:href="#DejaVuSans-6f" x="4235.261719"/>
    <use xlink:href="#DejaVuSans-6e" x="4296.443359"/>
    <use xlink:href="#DejaVuSans-2e" x="4359.822266"/>
    <use xlink:href="#DejaVuSans-6e" x="4391.609375"/>
    <use xlink:href="#DejaVuSans-65" x="4454.988281"/>
    <use xlink:href="#DejaVuSans-74" x="4516.511719"/>
    <use xlink:href="#DejaVuSans-2f" x="4555.720703"/>
    <use xlink:href="#DejaVuSans-66" x="4589.412109"/>
    <use xlink:href="#DejaVuSans-61" x="4624.617188"/>
    <use xlink:href="#DejaVuSans-6d" x="4685.896484"/>
    <use xlink:href="#DejaVuSans-6f" x="4783.308594"/>
    <use xlink:href="#DejaVuSans-75" x="4844.490234"/>
    <use xlink:href="#DejaVuSans-73" x="4907.869141"/>
    <use xlink:href="#DejaVuSans-41" x="4959.96875"/>
    <use xlink:href="#DejaVuSans-72" x="5028.376953"/>
    <use xlink:href="#DejaVuSans-74" x="5069.490234"/>
    <use xlink:href="#DejaVuSans-69" x="5108.699219"/>
    <use xlink:href="#DejaVuSans-73" x="5136.482422"/>
    <use xlink:href="#DejaVuSans-74" x="5188.582031"/>
    <use xlink:href="#DejaVuSans-73" x="5227.791016"/>
    <use xlink:href="#DejaVuSans-2e" x="5279.890625"/>
    <use xlink:href="#DejaVuSans-68" x="5311.677734"/>
    <use xlink:href="#DejaVuSans-74" x="5375.056641"/>
    <use xlink:href="#DejaVuSans-6d" x="5414.265625"/>
    <use xlink:href="#DejaVuSans-6c" x="5511.677734"/>
   </g>
  </g>
  <g id="text_31">
   <!-- Insights -->
   <g transform="translate(297 186.48)scale(0.12 -0.12)">
    <defs>
     <path id="DejaVuSerif-Bold-49" d="M 300 0 
L 300 378 
L 897 378 
L 897 4288 
L 300 4288 
L 300 4666 
L 2700 4666 
L 2700 4288 
L 2100 4288 
L 2100 378 
L 2700 378 
L 2700 0 
L 300 0 
z
" transform="scale(0.015625)"/>
    </defs>
    <use xlink:href="#DejaVuSerif-Bold-49"/>
    <use xlink:href="#DejaVuSerif-Bold-6e" x="46.777344"/>
    <use xlink:href="#DejaVuSerif-Bold-73" x="119.482422"/>
    <use xlink:href="#DejaVuSerif-Bold-69" x="175.78125"/>
    <use xlink:href="#DejaVuSerif-Bold-67" x="213.769531"/>
    <use xlink:href="#DejaVuSerif-Bold-68" x="283.691406"/>
    <use xlink:href="#DejaVuSerif-Bold-74" x="356.396484"/>
    <use xlink:href="#DejaVuSerif-Bold-73" x="402.587891"/>
   </g>
  </g>
  <g id="text_32">
   <!--  -->
   <g transform="translate(297 197.090031)scale(0.11 -0.11)"/>
   <!-- The most famous musicians and  -->
   <g transform="translate(297 209.407625)scale(0.11 -0.11)">
    <use xlink:href="#DejaVuSerif-54"/>
    <use xlink:href="#DejaVuSerif-68" x="66.699219"/>
    <use xlink:href="#DejaVuSerif-65" x="131.103516"/>
    <use xlink:href="#DejaVuSerif-20" x="190.283203"/>
    <use xlink:href="#DejaVuSerif-6d" x="222.070312"/>
    <use xlink:href="#DejaVuSerif-6f" x="316.894531"/>
    <use xlink:href="#DejaVuSerif-73" x="377.099609"/>
    <use xlink:href="#DejaVuSerif-74" x="428.417969"/>
    <use xlink:href="#DejaVuSerif-20" x="468.603516"/>
    <use xlink:href="#DejaVuSerif-66" x="500.390625"/>
    <use xlink:href="#DejaVuSerif-61" x="537.402344"/>
    <use xlink:href="#DejaVuSerif-6d" x="597.021484"/>
    <use xlink:href="#DejaVuSerif-6f" x="691.845703"/>
    <use xlink:href="#DejaVuSerif-75" x="752.050781"/>
    <use xlink:href="#DejaVuSerif-73" x="816.455078"/>
    <use xlink:href="#DejaVuSerif-20" x="867.773438"/>
    <use xlink:href="#DejaVuSerif-6d" x="899.560547"/>
    <use xlink:href="#DejaVuSerif-75" x="994.384766"/>
    <use xlink:href="#DejaVuSerif-73" x="1058.789062"/>
    <use xlink:href="#DejaVuSerif-69" x="1110.107422"/>
    <use xlink:href="#DejaVuSerif-63" x="1142.089844"/>
    <use xlink:href="#DejaVuSerif-69" x="1198.095703"/>
    <use xlink:href="#DejaVuSerif-61" x="1230.078125"/>
    <use xlink:href="#DejaVuSerif-6e" x="1289.697266"/>
    <use xlink:href="#DejaVuSerif-73" x="1354.101562"/>
    <use xlink:href="#DejaVuSerif-20" x="1405.419922"/>
    <use xlink:href="#DejaVuSerif-61" x="1437.207031"/>
    <use xlink:href="#DejaVuSerif-6e" x="1496.826172"/>
    <use xlink:href="#DejaVuSerif-64" x="1561.230469"/>
    <use xlink:href="#DejaVuSerif-20" x="1625.244141"/>
   </g>
   <!-- bands are, primarily, from -->
   <g transform="translate(297 221.725219)scale(0.11 -0.11)">
    <defs>
     <path id="DejaVuSerif-62" d="M 738 331 
L 738 4531 
L 184 4531 
L 184 4863 
L 1313 4863 
L 1313 2803 
Q 1481 3116 1742 3264 
Q 2003 3413 2388 3413 
Q 3000 3413 3387 2928 
Q 3775 2444 3775 1663 
Q 3775 881 3387 395 
Q 3000 -91 2388 -91 
Q 2003 -91 1742 57 
Q 1481 206 1313 519 
L 1313 0 
L 184 0 
L 184 331 
L 738 331 
z
M 1313 1497 
Q 1313 897 1542 583 
Q 1772 269 2209 269 
Q 2650 269 2876 622 
Q 3103 975 3103 1663 
Q 3103 2353 2876 2703 
Q 2650 3053 2209 3053 
Q 1772 3053 1542 2737 
Q 1313 2422 1313 1825 
L 1313 1497 
z
" transform="scale(0.015625)"/>
     <path id="DejaVuSerif-70" d="M 1313 1825 
L 1313 1497 
Q 1313 897 1542 583 
Q 1772 269 2209 269 
Q 2650 269 2876 622 
Q 3103 975 3103 1663 
Q 3103 2353 2876 2703 
Q 2650 3053 2209 3053 
Q 1772 3053 1542 2737 
Q 1313 2422 1313 1825 
z
M 738 2988 
L 184 2988 
L 184 3322 
L 1313 3322 
L 1313 2803 
Q 1481 3116 1742 3264 
Q 2003 3413 2388 3413 
Q 3000 3413 3387 2928 
Q 3775 2444 3775 1663 
Q 3775 881 3387 395 
Q 3000 -91 2388 -91 
Q 2003 -91 1742 57 
Q 1481 206 1313 519 
L 1313 -997 
L 1856 -997 
L 1856 -1331 
L 184 -1331 
L 184 -997 
L 738 -997 
L 738 2988 
z
" transform="scale(0.015625)"/>
     <path id="DejaVuSerif-79" d="M 1381 -609 
L 1600 -56 
L 359 2988 
L -19 2988 
L -19 3322 
L 1509 3322 
L 1509 2988 
L 978 2988 
L 1913 703 
L 2847 2988 
L 2350 2988 
L 2350 3322 
L 3597 3322 
L 3597 2988 
L 3225 2988 
L 1703 -750 
Q 1547 -1138 1356 -1280 
Q 1166 -1422 819 -1422 
Q 672 -1422 517 -1397 
Q 363 -1372 206 -1325 
L 206 -691 
L 500 -691 
Q 519 -903 608 -995 
Q 697 -1088 884 -1088 
Q 1056 -1088 1161 -992 
Q 1266 -897 1381 -609 
z
" transform="scale(0.015625)"/>
    </defs>
    <use xlink:href="#DejaVuSerif-62"/>
    <use xlink:href="#DejaVuSerif-61" x="64.013672"/>
    <use xlink:href="#DejaVuSerif-6e" x="123.632812"/>
    <use xlink:href="#DejaVuSerif-64" x="188.037109"/>
    <use xlink:href="#DejaVuSerif-73" x="252.050781"/>
    <use xlink:href="#DejaVuSerif-20" x="303.369141"/>
    <use xlink:href="#DejaVuSerif-61" x="335.15625"/>
    <use xlink:href="#DejaVuSerif-72" x="394.775391"/>
    <use xlink:href="#DejaVuSerif-65" x="442.578125"/>
    <use xlink:href="#DejaVuSerif-2c" x="501.757812"/>
    <use xlink:href="#DejaVuSerif-20" x="533.544922"/>
    <use xlink:href="#DejaVuSerif-70" x="565.332031"/>
    <use xlink:href="#DejaVuSerif-72" x="629.345703"/>
    <use xlink:href="#DejaVuSerif-69" x="677.148438"/>
    <use xlink:href="#DejaVuSerif-6d" x="709.130859"/>
    <use xlink:href="#DejaVuSerif-61" x="803.955078"/>
    <use xlink:href="#DejaVuSerif-72" x="863.574219"/>
    <use xlink:href="#DejaVuSerif-69" x="911.376953"/>
    <use xlink:href="#DejaVuSerif-6c" x="943.359375"/>
    <use xlink:href="#DejaVuSerif-79" x="975.341797"/>
    <use xlink:href="#DejaVuSerif-2c" x="1018.585938"/>
    <use xlink:href="#DejaVuSerif-20" x="1050.373047"/>
    <use xlink:href="#DejaVuSerif-66" x="1082.160156"/>
    <use xlink:href="#DejaVuSerif-72" x="1119.171875"/>
    <use xlink:href="#DejaVuSerif-6f" x="1166.974609"/>
    <use xlink:href="#DejaVuSerif-6d" x="1227.179688"/>
   </g>
   <!-- the USA, with GB and Jamaika -->
   <g transform="translate(297 234.199219)scale(0.11 -0.11)">
    <defs>
     <path id="DejaVuSerif-77" d="M 3072 3322 
L 3922 728 
L 4672 2988 
L 4191 2988 
L 4191 3322 
L 5394 3322 
L 5394 2988 
L 5025 2988 
L 4038 0 
L 3559 0 
L 2741 2484 
L 1919 0 
L 1459 0 
L 475 2988 
L 103 2988 
L 103 3322 
L 1606 3322 
L 1606 2988 
L 1069 2988 
L 1813 728 
L 2669 3322 
L 3072 3322 
z
" transform="scale(0.015625)"/>
    </defs>
    <use xlink:href="#DejaVuSerif-74"/>
    <use xlink:href="#DejaVuSerif-68" x="40.185547"/>
    <use xlink:href="#DejaVuSerif-65" x="104.589844"/>
    <use xlink:href="#DejaVuSerif-20" x="163.769531"/>
    <use xlink:href="#DejaVuSerif-55" x="195.556641"/>
    <use xlink:href="#DejaVuSerif-53" x="279.833984"/>
    <use xlink:href="#DejaVuSerif-41" x="348.339844"/>
    <use xlink:href="#DejaVuSerif-2c" x="420.556641"/>
    <use xlink:href="#DejaVuSerif-20" x="452.34375"/>
    <use xlink:href="#DejaVuSerif-77" x="484.130859"/>
    <use xlink:href="#DejaVuSerif-69" x="569.726562"/>
    <use xlink:href="#DejaVuSerif-74" x="601.708984"/>
    <use xlink:href="#DejaVuSerif-68" x="641.894531"/>
    <use xlink:href="#DejaVuSerif-20" x="706.298828"/>
    <use xlink:href="#DejaVuSerif-47" x="738.085938"/>
    <use xlink:href="#DejaVuSerif-42" x="817.96875"/>
    <use xlink:href="#DejaVuSerif-20" x="891.455078"/>
    <use xlink:href="#DejaVuSerif-61" x="923.242188"/>
    <use xlink:href="#DejaVuSerif-6e" x="982.861328"/>
    <use xlink:href="#DejaVuSerif-64" x="1047.265625"/>
    <use xlink:href="#DejaVuSerif-20" x="1111.279297"/>
    <use xlink:href="#DejaVuSerif-4a" x="1143.066406"/>
    <use xlink:href="#DejaVuSerif-61" x="1183.154297"/>
    <use xlink:href="#DejaVuSerif-6d" x="1242.773438"/>
    <use xlink:href="#DejaVuSerif-61" x="1337.597656"/>
    <use xlink:href="#DejaVuSerif-69" x="1397.216797"/>
    <use xlink:href="#DejaVuSerif-6b" x="1429.199219"/>
    <use xlink:href="#DejaVuSerif-61" x="1489.794922"/>
   </g>
   <!-- a significant distance behind. -->
   <g transform="translate(297 246.516813)scale(0.11 -0.11)">
    <use xlink:href="#DejaVuSerif-61"/>
    <use xlink:href="#DejaVuSerif-20" x="59.619141"/>
    <use xlink:href="#DejaVuSerif-73" x="91.40625"/>
    <use xlink:href="#DejaVuSerif-69" x="142.724609"/>
    <use xlink:href="#DejaVuSerif-67" x="174.707031"/>
    <use xlink:href="#DejaVuSerif-6e" x="238.720703"/>
    <use xlink:href="#DejaVuSerif-69" x="303.125"/>
    <use xlink:href="#DejaVuSerif-66" x="335.107422"/>
    <use xlink:href="#DejaVuSerif-69" x="372.119141"/>
    <use xlink:href="#DejaVuSerif-63" x="404.101562"/>
    <use xlink:href="#DejaVuSerif-61" x="460.107422"/>
    <use xlink:href="#DejaVuSerif-6e" x="519.726562"/>
    <use xlink:href="#DejaVuSerif-74" x="584.130859"/>
    <use xlink:href="#DejaVuSerif-20" x="624.316406"/>
    <use xlink:href="#DejaVuSerif-64" x="656.103516"/>
    <use xlink:href="#DejaVuSerif-69" x="720.117188"/>
    <use xlink:href="#DejaVuSerif-73" x="752.099609"/>
    <use xlink:href="#DejaVuSerif-74" x="803.417969"/>
    <use xlink:href="#DejaVuSerif-61" x="843.603516"/>
    <use xlink:href="#DejaVuSerif-6e" x="903.222656"/>
    <use xlink:href="#DejaVuSerif-63" x="967.626953"/>
    <use xlink:href="#DejaVuSerif-65" x="1023.632812"/>
    <use xlink:href="#DejaVuSerif-20" x="1082.8125"/>
    <use xlink:href="#DejaVuSerif-62" x="1114.599609"/>
    <use xlink:href="#DejaVuSerif-65" x="1178.613281"/>
    <use xlink:href="#DejaVuSerif-68" x="1237.792969"/>
    <use xlink:href="#DejaVuSerif-69" x="1302.197266"/>
    <use xlink:href="#DejaVuSerif-6e" x="1334.179688"/>
    <use xlink:href="#DejaVuSerif-64" x="1398.583984"/>
    <use xlink:href="#DejaVuSerif-2e" x="1462.597656"/>
   </g>
   <!--  -->
   <g transform="translate(297 258.990813)scale(0.11 -0.11)"/>
   <!-- It is at no surprise, that the -->
   <g transform="translate(297 271.308406)scale(0.11 -0.11)">
    <defs>
     <path id="DejaVuSerif-49" d="M 1581 331 
L 2175 331 
L 2175 0 
L 353 0 
L 353 331 
L 947 331 
L 947 4331 
L 353 4331 
L 353 4666 
L 2175 4666 
L 2175 4331 
L 1581 4331 
L 1581 331 
z
" transform="scale(0.015625)"/>
    </defs>
    <use xlink:href="#DejaVuSerif-49"/>
    <use xlink:href="#DejaVuSerif-74" x="39.501953"/>
    <use xlink:href="#DejaVuSerif-20" x="79.6875"/>
    <use xlink:href="#DejaVuSerif-69" x="111.474609"/>
    <use xlink:href="#DejaVuSerif-73" x="143.457031"/>
    <use xlink:href="#DejaVuSerif-20" x="194.775391"/>
    <use xlink:href="#DejaVuSerif-61" x="226.5625"/>
    <use xlink:href="#DejaVuSerif-74" x="286.181641"/>
    <use xlink:href="#DejaVuSerif-20" x="326.367188"/>
    <use xlink:href="#DejaVuSerif-6e" x="358.154297"/>
    <use xlink:href="#DejaVuSerif-6f" x="422.558594"/>
    <use xlink:href="#DejaVuSerif-20" x="482.763672"/>
    <use xlink:href="#DejaVuSerif-73" x="514.550781"/>
    <use xlink:href="#DejaVuSerif-75" x="565.869141"/>
    <use xlink:href="#DejaVuSerif-72" x="630.273438"/>
    <use xlink:href="#DejaVuSerif-70" x="678.076172"/>
    <use xlink:href="#DejaVuSerif-72" x="742.089844"/>
    <use xlink:href="#DejaVuSerif-69" x="789.892578"/>
    <use xlink:href="#DejaVuSerif-73" x="821.875"/>
    <use xlink:href="#DejaVuSerif-65" x="873.193359"/>
    <use xlink:href="#DejaVuSerif-2c" x="932.373047"/>
    <use xlink:href="#DejaVuSerif-20" x="964.160156"/>
    <use xlink:href="#DejaVuSerif-74" x="995.947266"/>
    <use xlink:href="#DejaVuSerif-68" x="1036.132812"/>
    <use xlink:href="#DejaVuSerif-61" x="1100.537109"/>
    <use xlink:href="#DejaVuSerif-74" x="1160.15625"/>
    <use xlink:href="#DejaVuSerif-20" x="1200.341797"/>
    <use xlink:href="#DejaVuSerif-74" x="1232.128906"/>
    <use xlink:href="#DejaVuSerif-68" x="1272.314453"/>
    <use xlink:href="#DejaVuSerif-65" x="1336.71875"/>
   </g>
   <!-- first two are native English- -->
   <g transform="translate(297 283.626)scale(0.11 -0.11)">
    <defs>
     <path id="DejaVuSerif-76" d="M 1581 0 
L 359 2988 
L -19 2988 
L -19 3322 
L 1509 3322 
L 1509 2988 
L 978 2988 
L 1913 703 
L 2847 2988 
L 2350 2988 
L 2350 3322 
L 3597 3322 
L 3597 2988 
L 3225 2988 
L 2003 0 
L 1581 0 
z
" transform="scale(0.015625)"/>
     <path id="DejaVuSerif-45" d="M 353 0 
L 353 331 
L 947 331 
L 947 4331 
L 353 4331 
L 353 4666 
L 4109 4666 
L 4109 3628 
L 3725 3628 
L 3725 4281 
L 1581 4281 
L 1581 2719 
L 3109 2719 
L 3109 3303 
L 3494 3303 
L 3494 1753 
L 3109 1753 
L 3109 2338 
L 1581 2338 
L 1581 384 
L 3775 384 
L 3775 1038 
L 4159 1038 
L 4159 0 
L 353 0 
z
" transform="scale(0.015625)"/>
     <path id="DejaVuSerif-2d" d="M 281 1959 
L 1881 1959 
L 1881 1472 
L 281 1472 
L 281 1959 
z
" transform="scale(0.015625)"/>
    </defs>
    <use xlink:href="#DejaVuSerif-66"/>
    <use xlink:href="#DejaVuSerif-69" x="37.011719"/>
    <use xlink:href="#DejaVuSerif-72" x="68.994141"/>
    <use xlink:href="#DejaVuSerif-73" x="116.796875"/>
    <use xlink:href="#DejaVuSerif-74" x="168.115234"/>
    <use xlink:href="#DejaVuSerif-20" x="208.300781"/>
    <use xlink:href="#DejaVuSerif-74" x="240.087891"/>
    <use xlink:href="#DejaVuSerif-77" x="280.273438"/>
    <use xlink:href="#DejaVuSerif-6f" x="365.869141"/>
    <use xlink:href="#DejaVuSerif-20" x="426.074219"/>
    <use xlink:href="#DejaVuSerif-61" x="457.861328"/>
    <use xlink:href="#DejaVuSerif-72" x="517.480469"/>
    <use xlink:href="#DejaVuSerif-65" x="565.283203"/>
    <use xlink:href="#DejaVuSerif-20" x="624.462891"/>
    <use xlink:href="#DejaVuSerif-6e" x="656.25"/>
    <use xlink:href="#DejaVuSerif-61" x="720.654297"/>
    <use xlink:href="#DejaVuSerif-74" x="780.273438"/>
    <use xlink:href="#DejaVuSerif-69" x="820.458984"/>
    <use xlink:href="#DejaVuSerif-76" x="852.441406"/>
    <use xlink:href="#DejaVuSerif-65" x="908.935547"/>
    <use xlink:href="#DejaVuSerif-20" x="968.115234"/>
    <use xlink:href="#DejaVuSerif-45" x="999.902344"/>
    <use xlink:href="#DejaVuSerif-6e" x="1072.900391"/>
    <use xlink:href="#DejaVuSerif-67" x="1137.304688"/>
    <use xlink:href="#DejaVuSerif-6c" x="1201.318359"/>
    <use xlink:href="#DejaVuSerif-69" x="1233.300781"/>
    <use xlink:href="#DejaVuSerif-73" x="1265.283203"/>
    <use xlink:href="#DejaVuSerif-68" x="1316.601562"/>
    <use xlink:href="#DejaVuSerif-2d" x="1381.005859"/>
   </g>
   <!-- speaking countries, as it is -->
   <g transform="translate(297 296.1)scale(0.11 -0.11)">
    <use xlink:href="#DejaVuSerif-73"/>
    <use xlink:href="#DejaVuSerif-70" x="51.318359"/>
    <use xlink:href="#DejaVuSerif-65" x="115.332031"/>
    <use xlink:href="#DejaVuSerif-61" x="174.511719"/>
    <use xlink:href="#DejaVuSerif-6b" x="234.130859"/>
    <use xlink:href="#DejaVuSerif-69" x="294.726562"/>
    <use xlink:href="#DejaVuSerif-6e" x="326.708984"/>
    <use xlink:href="#DejaVuSerif-67" x="391.113281"/>
    <use xlink:href="#DejaVuSerif-20" x="455.126953"/>
    <use xlink:href="#DejaVuSerif-63" x="486.914062"/>
    <use xlink:href="#DejaVuSerif-6f" x="542.919922"/>
    <use xlink:href="#DejaVuSerif-75" x="603.125"/>
    <use xlink:href="#DejaVuSerif-6e" x="667.529297"/>
    <use xlink:href="#DejaVuSerif-74" x="731.933594"/>
    <use xlink:href="#DejaVuSerif-72" x="772.119141"/>
    <use xlink:href="#DejaVuSerif-69" x="819.921875"/>
    <use xlink:href="#DejaVuSerif-65" x="851.904297"/>
    <use xlink:href="#DejaVuSerif-73" x="911.083984"/>
    <use xlink:href="#DejaVuSerif-2c" x="962.402344"/>
    <use xlink:href="#DejaVuSerif-20" x="994.189453"/>
    <use xlink:href="#DejaVuSerif-61" x="1025.976562"/>
    <use xlink:href="#DejaVuSerif-73" x="1085.595703"/>
    <use xlink:href="#DejaVuSerif-20" x="1136.914062"/>
    <use xlink:href="#DejaVuSerif-69" x="1168.701172"/>
    <use xlink:href="#DejaVuSerif-74" x="1200.683594"/>
    <use xlink:href="#DejaVuSerif-20" x="1240.869141"/>
    <use xlink:href="#DejaVuSerif-69" x="1272.65625"/>
    <use xlink:href="#DejaVuSerif-73" x="1304.638672"/>
   </g>
   <!-- the world-dominant language.  -->
   <g transform="translate(297 308.574)scale(0.11 -0.11)">
    <use xlink:href="#DejaVuSerif-74"/>
    <use xlink:href="#DejaVuSerif-68" x="40.185547"/>
    <use xlink:href="#DejaVuSerif-65" x="104.589844"/>
    <use xlink:href="#DejaVuSerif-20" x="163.769531"/>
    <use xlink:href="#DejaVuSerif-77" x="195.556641"/>
    <use xlink:href="#DejaVuSerif-6f" x="281.152344"/>
    <use xlink:href="#DejaVuSerif-72" x="341.357422"/>
    <use xlink:href="#DejaVuSerif-6c" x="389.160156"/>
    <use xlink:href="#DejaVuSerif-64" x="421.142578"/>
    <use xlink:href="#DejaVuSerif-2d" x="485.15625"/>
    <use xlink:href="#DejaVuSerif-64" x="518.945312"/>
    <use xlink:href="#DejaVuSerif-6f" x="582.958984"/>
    <use xlink:href="#DejaVuSerif-6d" x="643.164062"/>
    <use xlink:href="#DejaVuSerif-69" x="737.988281"/>
    <use xlink:href="#DejaVuSerif-6e" x="769.970703"/>
    <use xlink:href="#DejaVuSerif-61" x="834.375"/>
    <use xlink:href="#DejaVuSerif-6e" x="893.994141"/>
    <use xlink:href="#DejaVuSerif-74" x="958.398438"/>
    <use xlink:href="#DejaVuSerif-20" x="998.583984"/>
    <use xlink:href="#DejaVuSerif-6c" x="1030.371094"/>
    <use xlink:href="#DejaVuSerif-61" x="1062.353516"/>
    <use xlink:href="#DejaVuSerif-6e" x="1121.972656"/>
    <use xlink:href="#DejaVuSerif-67" x="1186.376953"/>
    <use xlink:href="#DejaVuSerif-75" x="1250.390625"/>
    <use xlink:href="#DejaVuSerif-61" x="1314.794922"/>
    <use xlink:href="#DejaVuSerif-67" x="1374.414062"/>
    <use xlink:href="#DejaVuSerif-65" x="1438.427734"/>
    <use xlink:href="#DejaVuSerif-2e" x="1497.607422"/>
    <use xlink:href="#DejaVuSerif-20" x="1529.394531"/>
   </g>
   <!--  -->
   <g transform="translate(297 321.048)scale(0.11 -0.11)"/>
  </g>
 </g>
 <defs>
  <clipPath id="pcb99465da6">
   <rect x="60.64375" y="70.56" width="720.55625" height="367.92"/>
  </clipPath>
 </defs>
</svg>
